<?xml version="1.0" encoding="UTF-8"?>
<svg id="Layer_1" data-name="Layer 1" xmlns="http://www.w3.org/2000/svg" xmlns:xlink="http://www.w3.org/1999/xlink" viewBox="0 0 80 80">
  <defs>
    <style>
      .cls-1 {
        fill: #4a843a;
      }

      .cls-2 {
        fill: #518e3f;
      }

      .cls-3 {
        fill: #158fba;
      }

      .cls-4 {
        fill: #528f3f;
      }

      .cls-5, .cls-6 {
        fill: #fff;
      }

      .cls-7 {
        fill: #518d40;
      }

      .cls-8, .cls-6, .cls-9, .cls-10, .cls-11, .cls-12, .cls-13 {
        fill-rule: evenodd;
      }

      .cls-8, .cls-14 {
        fill: #f8ec1d;
      }

      .cls-15 {
        fill: #e54925;
      }

      .cls-16 {
        fill: #4d883b;
      }

      .cls-17 {
        clip-path: url(#clippath-2);
      }

      .cls-9 {
        fill: #ec5125;
      }

      .cls-10, .cls-18 {
        fill: #5f3321;
      }

      .cls-19 {
        fill: #4e893c;
      }

      .cls-20 {
        fill: #508c3d;
      }

      .cls-21 {
        clip-path: url(#clippath-6);
      }

      .cls-22 {
        fill: #539040;
      }

      .cls-23 {
        fill: #4c863b;
      }

      .cls-24 {
        fill: #559341;
      }

      .cls-25 {
        fill: #b6882d;
      }

      .cls-26 {
        fill: #4e8a3c;
      }

      .cls-27 {
        fill: #4d893c;
      }

      .cls-28 {
        clip-path: url(#clippath-1);
      }

      .cls-29 {
        fill: #4b853a;
      }

      .cls-30 {
        clip-path: url(#clippath-4);
      }

      .cls-31 {
        fill: #518d3e;
      }

      .cls-32 {
        fill: #4c873b;
      }

      .cls-33 {
        fill: #508d3e;
      }

      .cls-34 {
        fill: #518e3e;
      }

      .cls-35 {
        fill: #498339;
      }

      .cls-36 {
        fill: #253d87;
      }

      .cls-37 {
        fill: #498239;
      }

      .cls-38 {
        fill: #549341;
      }

      .cls-11 {
        fill: #0c72ba;
      }

      .cls-39 {
        fill: #4a853a;
      }

      .cls-40 {
        fill: #539140;
      }

      .cls-41 {
        clip-path: url(#clippath);
      }

      .cls-42 {
        fill: #b6892d;
      }

      .cls-43 {
        fill: #4d883c;
      }

      .cls-44 {
        clip-rule: evenodd;
      }

      .cls-44, .cls-45 {
        fill: none;
      }

      .cls-46 {
        fill: #6cc8ee;
      }

      .cls-47 {
        fill: #4b863a;
      }

      .cls-48 {
        fill: #fff200;
      }

      .cls-49 {
        clip-path: url(#clippath-3);
      }

      .cls-12 {
        fill: #e6a12b;
      }

      .cls-50 {
        fill: #549241;
      }

      .cls-13 {
        fill: #1d86c8;
      }

      .cls-51 {
        fill: #549240;
      }

      .cls-52 {
        fill: #4a8439;
      }

      .cls-53 {
        fill: #529040;
      }

      .cls-54 {
        clip-path: url(#clippath-5);
      }

      .cls-55 {
        fill: #508c3e;
      }

      .cls-56 {
        fill: #4e8a3d;
      }

      .cls-57 {
        fill: #034ea2;
      }

      .cls-58 {
        fill: #559442;
      }

      .cls-59 {
        fill: #4f8b3d;
      }
    </style>
    <clipPath id="clippath">
      <rect class="cls-45" x="2.12" y="2.34" width="75.77" height="74.1"/>
    </clipPath>
    <clipPath id="clippath-1">
      <polygon class="cls-44" points="39.96 30.7 44.92 39.33 44.67 39.47 42.78 39.47 38.57 39.38 36.51 39.48 34.95 39.4 39.96 30.7"/>
    </clipPath>
    <clipPath id="clippath-2">
      <path class="cls-44" d="m42.57,39.57s.41-.32.43-.44c0,0,.16-.04.17,0s.4.76.9,1.06.97.73,1.2.79.47.09.47.09l.07.12-.8.1s-2.29-1.28-2.44-1.72Z"/>
    </clipPath>
    <clipPath id="clippath-3">
      <path class="cls-44" d="m41.38,39.74s.31-.16.55-.72c0,0,.12-.1.25,0,0,0,.4.66,1.14,1.07s1.76,1.19,1.76,1.19l-.52.1s-3.16-1.01-3.22-1.13-.01-.03-.08-.17.11-.35.11-.35Z"/>
    </clipPath>
    <clipPath id="clippath-4">
      <path class="cls-44" d="m39.97,39.79l.63-.84c0-.05.23,0,.23,0,0,0,.33.85,1.26,1.3l.92.45,1.65.67s-.15.11-.54.07-.91.08-.91.08c0,0-.9-.15-1.32-.27s-2.03-.38-2.17-.83.24-.64.24-.64Z"/>
    </clipPath>
    <clipPath id="clippath-5">
      <path class="cls-44" d="m38.07,39.86s.43-.3.98-1.1h.33s.58,1.17.98,1.45,2.9,1.31,2.9,1.31c0,0-.89.18-1.39.21s-1.43.04-1.61-.05l-.06-.03-1.08-.41s-1.14-.89-1.16-1.12.11-.26.11-.26Z"/>
    </clipPath>
    <clipPath id="clippath-6">
      <path class="cls-44" d="m34.01,41.28s1.66-.77,2.22-1.35.98-1.3.98-1.3h.4s.13.99.74,1.67,1.85,1.34,1.85,1.34c0,0-.81.31-1.22.26s-1.22-.26-1.87-.23-1.18.09-1.64.1-.94-.22-1.69,0l.24-.51Z"/>
    </clipPath>
  </defs>
  <g class="cls-41">
    <g>
      <g>
        <rect class="cls-57" x="-21.11" y=".79" width="122.21" height="77.2"/>
        <rect class="cls-5" x="-21.11" y="25.18" width="122.21" height="28.42"/>
      </g>
      <g>
        <g>
          <g>
            <path class="cls-25" d="m29,42.17l-.14-.63.26-.06.14.63-.26.06Z"/>
            <path class="cls-25" d="m27.84,40.15v-.84c-.01-.14.03-.25.11-.33.08-.08.18-.12.31-.13.19,0,.32.08.4.25h0c.02-.08.07-.14.14-.18.07-.03.15-.05.23-.06.05,0,.12,0,.19-.02.02,0,.03,0,.05,0,.02,0,.03,0,.05,0,.03,0,.06-.02.08-.03v.34s-.05.02-.08.02c-.03,0-.06.01-.1.02-.07,0-.13.01-.2.02-.08.01-.15.04-.18.07-.04.04-.05.1-.05.18v.33s.63-.01.63-.01v.35s-1.58.03-1.58.03Zm.71-.36v-.37c0-.15-.08-.23-.24-.23-.15,0-.22.08-.22.23v.37s.45,0,.45,0Z"/>
            <path class="cls-25" d="m27.88,38.12l.18-1.15.29.04-.12.8.34.05.11-.74.27.04-.11.74.38.06.13-.82.29.04-.18,1.16-1.57-.24Z"/>
            <path class="cls-25" d="m28.22,36.3l.21-.66c.06-.18.15-.3.27-.35.12-.05.24-.05.37,0,.13.04.22.11.29.22.07.11.08.26.03.44l-.11.34.54.17-.11.33-1.51-.48Zm.82-.11l.08-.25s.02-.08.03-.11c0-.04,0-.07,0-.1-.01-.06-.06-.11-.16-.14-.09-.03-.17-.02-.21.02-.05.04-.08.11-.1.18l-.08.25.45.14Z"/>
            <path class="cls-25" d="m30.32,33.79c.37.2.46.49.27.88-.2.39-.49.49-.87.3l-.88-.45.16-.31.88.45s.08.03.12.05c.04.01.08.01.12.01.04,0,.08-.02.11-.05.04-.03.07-.07.1-.13.05-.1.06-.19.03-.26-.03-.07-.09-.12-.2-.18l-.88-.45.16-.31.88.45Z"/>
            <path class="cls-25" d="m29.84,32.7l.43-.58c.09-.12.18-.2.28-.24.1-.04.21-.01.33.07.06.05.1.1.13.16.02.06.02.13,0,.21.17-.12.33-.12.5,0,.13.1.19.21.18.34,0,.13-.05.25-.14.37l-.45.6-1.27-.94Zm.72.1l.2-.27s.05-.1.05-.15c0-.05-.03-.09-.08-.13-.06-.04-.12-.05-.16-.03-.04.02-.09.06-.12.11l-.19.25.3.22Zm.54.4l.21-.28c.04-.05.06-.11.07-.17,0-.05-.03-.11-.09-.15-.07-.05-.13-.07-.18-.05-.05.01-.1.05-.14.11l-.22.29.35.26Z"/>
            <path class="cls-25" d="m31.06,31.15l.25-.25.91.92.53-.53.21.21-.78.77-1.12-1.12Z"/>
            <path class="cls-25" d="m32.28,30.02l.27-.22.99,1.24-.27.22-.99-1.24Z"/>
            <path class="cls-25" d="m34.25,29.3c-.05-.06-.12-.1-.2-.11-.08-.01-.16,0-.23.05-.13.08-.19.18-.19.31,0,.13.04.25.11.37.07.12.16.2.27.26.11.06.23.05.36-.03.09-.05.14-.13.15-.21.02-.08,0-.17-.04-.27l.28-.17c.17.39.09.69-.24.91-.21.12-.41.15-.6.09-.19-.06-.35-.19-.47-.39-.12-.21-.17-.41-.14-.61.03-.2.15-.37.35-.5.15-.09.3-.13.46-.11.16.02.29.1.41.25l-.28.17Z"/>
            <path class="cls-25" d="m35.28,28.21l.32-.13,1.12,1.25-.33.13-.24-.28-.53.21.02.37-.32.13-.05-1.69Zm.33.91l.37-.15-.4-.47h0s.03.62.03.62Z"/>
            <path class="cls-25" d="m38.53,27.32l.67-.04c.2-.01.38.04.51.16.14.12.22.31.24.58.02.23-.03.43-.14.58-.11.16-.28.25-.51.26l-.67.04-.1-1.58Zm.43,1.27l.3-.02s.1-.02.14-.04c.04-.02.08-.05.11-.09.03-.04.06-.09.08-.15.02-.06.02-.14.02-.22,0-.16-.05-.29-.12-.37-.07-.09-.19-.13-.35-.12l-.24.02.06,1Z"/>
            <path class="cls-25" d="m40.46,27.25l1.16.1-.02.29-.81-.07-.03.34.74.06-.02.27-.74-.06-.03.39.82.07-.02.29-1.17-.1.13-1.58Z"/>
            <path class="cls-25" d="m43.99,27.91l.31.13.19,1.23h0s.4-.98.4-.98l.29.12-.6,1.47-.31-.13-.19-1.22h0s-.4.98-.4.98l-.29-.12.6-1.47Z"/>
            <path class="cls-25" d="m45.82,28.73l.3.17-.78,1.38-.3-.17.78-1.38Z"/>
            <path class="cls-25" d="m47.23,30.29c.04-.07.05-.15.03-.23-.02-.08-.07-.14-.13-.2-.12-.09-.24-.11-.36-.06-.12.05-.22.13-.3.25-.08.11-.13.22-.14.35-.01.13.04.23.16.32.08.06.17.08.25.06.08-.02.16-.06.24-.14l.26.2c-.3.3-.61.34-.93.11-.19-.15-.29-.32-.31-.53-.01-.2.05-.4.19-.59.15-.19.32-.31.52-.36.2-.05.4,0,.59.14.14.11.23.23.27.38.04.15.02.31-.08.47l-.26-.19Z"/>
            <path class="cls-25" d="m48.62,30.83l.24.25-.74,1.51-.24-.25.17-.33-.4-.41-.34.16-.24-.25,1.54-.68Zm-.72.65l.28.29.28-.54h0s-.56.26-.56.26Z"/>
            <path class="cls-25" d="m49.64,31.96l.48.69c.08.12.11.23.09.35-.02.11-.08.21-.18.28-.15.11-.31.11-.48.01h0c.03.09.02.16-.01.23-.04.07-.09.13-.16.18-.04.03-.09.07-.15.12-.01.01-.03.02-.04.03-.01.01-.03.02-.04.04-.02.03-.04.05-.05.07l-.19-.28s.04-.04.06-.06c.02-.02.05-.04.07-.07.05-.04.1-.09.15-.13.06-.06.1-.11.11-.16,0-.05-.01-.11-.06-.18l-.19-.27-.51.35-.2-.29,1.3-.9Zm-.39.7l.21.3c.08.13.19.15.32.06.12-.09.14-.19.05-.31l-.21-.3-.37.25Z"/>
            <path class="cls-25" d="m50.92,34.04l.15.31-1.18,1.2-.15-.32.27-.26-.25-.52-.37.04-.15-.31,1.68-.15Zm-.89.39l.17.36.44-.43h0s-.61.07-.61.07Z"/>
            <path class="cls-25" d="m50.48,36.89c-.18-.08-.28-.2-.32-.35-.06-.23-.04-.43.08-.6.11-.17.28-.29.51-.35.23-.06.44-.05.63.03.19.08.31.24.38.47.04.16.04.31-.02.45-.06.15-.17.25-.34.33l-.09-.31c.16-.09.21-.22.17-.38-.04-.14-.13-.23-.25-.26-.12-.03-.25-.03-.39.01-.13.04-.24.1-.32.19-.09.09-.11.21-.07.35.06.21.2.3.43.26l-.09-.33.25-.07.18.62-.82.23-.06-.21.16-.08Z"/>
            <path class="cls-25" d="m51.2,38.89c-.42.04-.66-.16-.7-.59-.05-.43.14-.67.57-.72l.98-.1.04.35-.98.1s-.08.01-.12.03c-.04.01-.07.03-.11.05-.03.03-.05.06-.07.1-.02.04-.02.1-.01.16.01.12.05.19.11.23.06.04.15.05.26.04l.98-.1.04.35-.98.1Z"/>
            <path class="cls-25" d="m52.17,39.96l-.02.34-1.61.48.02-.35.36-.09.03-.57-.34-.14.02-.34,1.55.67Zm-.97-.09l-.02.4.59-.16h0s-.57-.24-.57-.24Z"/>
            <path class="cls-25" d="m51.02,42.09l-.17.62-.26-.07.17-.62.26.07Z"/>
          </g>
          <g>
            <path class="cls-25" d="m30.44,43.82l.15.32-1.21,1.24-.16-.32.27-.26-.26-.53-.38.05-.15-.32,1.73-.17Zm-.92.41l.18.37.45-.44h0s-.63.07-.63.07Z"/>
            <path class="cls-25" d="m31,44.95l.29.39-.68.96h0s1.11-.38,1.11-.38l.29.39-1.31.97-.19-.26.93-.68h0s-1.16.37-1.16.37l-.16-.22.69-.99h0s-.92.67-.92.67l-.19-.26,1.31-.97Z"/>
            <path class="cls-25" d="m32.35,46.67l.87.82-.21.22-.61-.57-.24.25.56.53-.19.2-.56-.53-.28.29.62.59-.21.22-.88-.83,1.12-1.19Z"/>
            <path class="cls-25" d="m33.54,47.76l.71.49c.12.08.19.18.21.3.02.12,0,.23-.07.33-.11.16-.26.22-.45.19h0c.06.07.08.15.07.23-.01.08-.04.15-.09.23-.03.05-.06.1-.1.17,0,.02-.02.03-.02.05,0,.02-.02.03-.02.05-.01.03-.02.06-.02.09l-.29-.2s.02-.06.03-.08c.01-.03.03-.06.04-.09.03-.06.07-.12.1-.18.04-.08.06-.14.05-.2-.01-.05-.05-.1-.12-.15l-.28-.19-.36.53-.3-.2.92-1.35Zm-.12.81l.31.21c.13.09.24.07.33-.06.08-.13.06-.23-.07-.32l-.31-.21-.26.38Z"/>
            <path class="cls-25" d="m35.07,48.73l.32.16-.74,1.45-.32-.16.74-1.45Z"/>
            <path class="cls-25" d="m36.63,49.98c.02-.08,0-.16-.04-.23-.04-.07-.11-.12-.19-.15-.15-.05-.27-.03-.37.05-.1.08-.18.19-.22.33-.05.13-.06.26-.03.39.03.13.11.22.25.27.1.03.19.03.27-.01.08-.04.14-.11.19-.21l.32.11c-.2.39-.49.52-.88.39-.23-.09-.38-.23-.46-.43-.08-.2-.07-.41,0-.63.08-.23.22-.4.4-.51.18-.11.39-.12.63-.04.17.06.3.16.38.3.09.14.11.3.07.49l-.32-.11Z"/>
            <path class="cls-25" d="m37.97,49.76l.35.06.3,1.71-.36-.06-.05-.38-.58-.1-.19.34-.35-.06.87-1.5Zm-.21.98l.4.07-.09-.63h0s-.31.55-.31.55Z"/>
            <path class="cls-25" d="m42,50.33c-.03-.08-.07-.14-.14-.19-.07-.04-.15-.06-.24-.05-.15.03-.25.1-.3.22-.05.12-.06.25-.04.4.02.14.07.26.15.36.08.1.2.14.35.12.1-.02.18-.06.23-.14.05-.07.07-.17.07-.28l.33-.05c0,.44-.19.69-.6.76-.24.03-.45-.02-.61-.16-.16-.14-.26-.32-.29-.56-.03-.25,0-.46.11-.64.11-.18.29-.29.53-.33.18-.02.34,0,.48.08.14.08.24.21.29.4l-.33.05Z"/>
            <path class="cls-25" d="m42.67,49.63l1.14-.37.09.29-.79.26.11.33.73-.23.09.27-.73.23.12.38.81-.26.09.29-1.15.37-.5-1.55Z"/>
            <path class="cls-25" d="m44.2,49.11l.31-.16,1.09.67h0s-.5-.97-.5-.97l.29-.15.75,1.45-.31.16-1.08-.67h0s.5.97.5.97l-.29.15-.75-1.45Z"/>
            <path class="cls-25" d="m46.26,48.26l-.38.28-.18-.24,1.05-.78.18.24-.38.28.79,1.07-.29.21-.79-1.07Z"/>
            <path class="cls-25" d="m47.02,47.3l.61-.62c.1-.1.21-.15.33-.15.12,0,.22.05.32.13.14.14.17.3.1.48h0c.08-.04.16-.05.23-.03.08.03.14.07.21.13.04.04.09.08.15.13.01.01.03.02.04.03.01.01.03.02.04.03.03.02.06.03.09.04l-.24.25s-.05-.03-.08-.05c-.03-.02-.05-.04-.08-.06-.05-.05-.11-.09-.16-.13-.07-.05-.13-.08-.19-.08-.05,0-.11.03-.17.09l-.24.25.45.45-.25.26-1.16-1.14Zm.78.26l.27-.27c.11-.11.11-.22,0-.33-.11-.11-.22-.1-.33.01l-.27.27.33.32Z"/>
            <path class="cls-25" d="m48.5,45.64l.2-.29,1.67.46-.21.29-.36-.11-.34.48.22.31-.2.29-.99-1.43Zm.8.6l.24-.33-.61-.18h0s.37.52.37.52Z"/>
            <path class="cls-25" d="m49.19,44.58l.16-.32,1.19.59.34-.69.27.13-.5,1.01-1.46-.73Z"/>
          </g>
        </g>
        <g>
          <polygon class="cls-13" points="39.96 30.76 44.92 39.39 44.66 39.51 42.77 39.51 38.57 39.44 36.5 39.54 34.95 39.47 39.96 30.76"/>
          <polygon class="cls-5" points="40.35 31.37 40.16 36.17 40.6 31.82 40.35 31.37"/>
          <polygon class="cls-5" points="41.17 32.8 40.32 36.2 41.31 33.04 41.17 32.8"/>
          <polygon class="cls-5" points="41.52 33.41 40.45 36.14 41.62 33.59 41.52 33.41"/>
          <polygon class="cls-5" points="41.8 33.9 40.74 35.9 41.9 34.07 41.8 33.9"/>
          <polygon class="cls-5" points="42.06 34.35 40.76 36.17 42.12 34.5 42.06 34.35"/>
          <polygon class="cls-5" points="40.64 36.52 42.35 34.85 42.26 34.69 40.64 36.52"/>
          <polygon class="cls-5" points="40.54 36.77 42.62 35.32 42.78 35.61 40.54 36.77"/>
          <polygon class="cls-5" points="40.64 36.87 43.05 36.07 43.27 36.46 40.64 36.87"/>
          <polygon class="cls-5" points="40.92 36.98 43.52 36.91 43.67 37.16 40.92 36.98"/>
          <polygon class="cls-5" points="40.74 37.09 43.96 37.65 44.08 37.86 40.74 37.09"/>
          <polygon class="cls-5" points="40.72 37.2 44.48 38.55 44.92 39.33 44.76 39.41 40.72 37.2"/>
          <polygon class="cls-5" points="40.61 37.33 43.48 39.17 43.89 39.46 43.06 39.43 40.61 37.33"/>
          <polygon class="cls-5" points="40.56 37.51 41.94 39.02 41.82 39.26 40.56 37.51"/>
          <polygon class="cls-5" points="40.25 37.93 40.44 39.2 40.55 39.02 40.25 37.93"/>
          <polygon class="cls-5" points="39.47 38.76 39.82 37.79 39.39 38.71 39.47 38.76"/>
          <polygon class="cls-5" points="37.78 39.05 39.58 37.39 37.71 38.69 37.78 39.05"/>
          <polygon class="cls-5" points="36.56 38.72 39.41 37.3 36.6 38.46 36.56 38.72"/>
          <path class="cls-5" d="m36.8,37.58s-.15.26-.15.38c.02,0,2.81-.8,2.81-.8l-2.66.42Z"/>
          <polygon class="cls-5" points="37.04 37.02 36.92 37.27 39.39 37.06 37.04 37.02"/>
          <polygon class="cls-5" points="37.56 36.33 37.22 36.57 39.53 36.91 37.56 36.33"/>
          <polygon class="cls-5" points="37.88 35.96 39.6 36.77 38.07 35.69 37.88 35.96"/>
          <polygon class="cls-5" points="39.65 36.52 37.54 34.56 37.43 34.74 39.65 36.52"/>
          <polygon class="cls-5" points="39.51 36.2 37.88 34.17 37.84 34.33 39.51 36.2"/>
          <polygon class="cls-5" points="38.38 33.38 39.63 35.82 38.45 33.18 38.38 33.38"/>
          <polygon class="cls-5" points="38.17 33.71 39.32 35.61 38.09 33.84 38.17 33.71"/>
          <polygon class="cls-5" points="38.63 32.75 39.82 36.07 38.77 32.67 38.63 32.75"/>
          <polygon class="cls-5" points="39.32 31.58 40.04 36.27 39.56 31.21 39.32 31.58"/>
          <g>
            <path class="cls-10" d="m39.86,36.75s-.21,0-.16-.12.08-.29.35-.24.31.28.37.55.07.52.04.55-.28.05-.33.27-.04.36-.1.38-.12.06-.15-.33-.25-.36-.26-.38,0-.39.09-.5.16-.1.16-.18Z"/>
            <path class="cls-18" d="m39.98,38.17s-.02,0-.03-.01c-.03-.02-.06-.08-.09-.35-.03-.31-.17-.34-.23-.36-.02,0-.03,0-.03-.02-.02-.03,0-.4.09-.52.04-.05.08-.08.11-.1.03-.02.05-.03.05-.06-.04,0-.12-.01-.16-.06-.01-.02-.02-.05,0-.08,0-.01.01-.03.02-.04.04-.11.1-.26.35-.21.27.05.32.28.38.54v.02c.06.26.08.53.03.56,0,0-.02.01-.05.02-.08.03-.24.07-.28.25-.02.08-.03.15-.04.2-.02.12-.03.18-.08.19,0,0,0,0-.01,0-.01,0-.02,0-.04,0Zm-.36-.75s.01,0,.02,0c.06.01.22.05.25.39.02.19.04.3.07.32.01,0,.02,0,.04,0,0,0,0,0,.01,0,.03,0,.04-.07.05-.17,0-.05.02-.12.04-.2.04-.19.22-.24.3-.27.02,0,.04-.01.04-.01.02-.02.02-.24-.04-.53v-.02c-.06-.26-.11-.47-.36-.52-.23-.04-.27.08-.32.19,0,.01-.01.03-.02.04,0,.02,0,.04,0,.05.02.04.11.05.14.05h.01s0,.01,0,.01c0,.06-.03.08-.06.1-.03.02-.06.04-.1.09-.08.1-.1.44-.09.48Z"/>
          </g>
          <path class="cls-12" d="m39.91,36.67s-.21,0-.16-.12.08-.29.35-.24.31.28.37.55.07.52.04.55-.28.05-.33.27-.04.36-.1.38-.12.06-.15-.33-.25-.36-.26-.38,0-.39.09-.5.16-.1.16-.18Z"/>
          <path class="cls-9" d="m39.89,36.68s-.21,0-.16-.12.08-.29.35-.24.31.28.37.55.07.52.04.55-.28.05-.33.27-.04.36-.1.38-.12.06-.15-.33-.25-.36-.26-.38,0-.39.09-.5.16-.1.16-.18Z"/>
          <g class="cls-28">
            <path class="cls-36" d="m39.99,42.36c-2.04,0-3.7-1.61-3.7-3.6s1.66-3.6,3.7-3.6,3.7,1.61,3.7,3.6-1.66,3.6-3.7,3.6Zm0-6.94c-1.9,0-3.45,1.5-3.45,3.34s1.55,3.34,3.45,3.34,3.45-1.5,3.45-3.34-1.55-3.34-3.45-3.34Z"/>
            <path class="cls-46" d="m39.99,42.5c-2.15,0-3.89-1.7-3.89-3.78s1.75-3.78,3.89-3.78,3.89,1.7,3.89,3.78-1.75,3.78-3.89,3.78Zm0-7.25c-1.97,0-3.57,1.55-3.57,3.46s1.6,3.46,3.57,3.46,3.57-1.55,3.57-3.46-1.6-3.46-3.57-3.46Z"/>
            <path class="cls-3" d="m39.99,42.65c-2.23,0-4.05-1.77-4.05-3.94s1.82-3.94,4.05-3.94,4.05,1.77,4.05,3.94-1.82,3.94-4.05,3.94Zm0-7.59c-2.08,0-3.77,1.64-3.77,3.65s1.69,3.65,3.77,3.65,3.77-1.64,3.77-3.65-1.69-3.65-3.77-3.65Z"/>
            <path class="cls-7" d="m39.99,34.84c2.21,0,4,1.74,4,3.88s-1.79,3.88-4,3.88-4-1.74-4-3.88,1.79-3.88,4-3.88m0-.25c-1.13,0-2.2.43-3,1.21-.8.78-1.25,1.82-1.25,2.93s.44,2.14,1.25,2.93c.8.78,1.87,1.21,3,1.21s2.2-.43,3-1.21c.8-.78,1.25-1.82,1.25-2.93s-.44-2.14-1.25-2.93c-.8-.78-1.87-1.21-3-1.21h0Z"/>
            <path class="cls-48" d="m39.99,34.66c2.31,0,4.18,1.81,4.18,4.05s-1.87,4.05-4.18,4.05-4.18-1.81-4.18-4.05,1.87-4.05,4.18-4.05m0-.19c-1.17,0-2.26.44-3.09,1.24-.83.8-1.28,1.87-1.28,3s.46,2.2,1.28,3c.82.8,1.92,1.24,3.09,1.24s2.26-.44,3.09-1.24c.83-.8,1.28-1.87,1.28-3s-.46-2.2-1.28-3c-.82-.8-1.92-1.24-3.09-1.24h0Z"/>
            <path class="cls-15" d="m39.99,34.54c2.38,0,4.31,1.87,4.31,4.18s-1.93,4.18-4.31,4.18-4.31-1.87-4.31-4.18,1.93-4.18,4.31-4.18m0-.38c-1.25,0-2.43.47-3.31,1.33-.89.86-1.38,2.01-1.38,3.23s.49,2.37,1.38,3.23c.88.86,2.06,1.33,3.31,1.33s2.43-.47,3.31-1.33c.89-.86,1.38-2.01,1.38-3.23s-.49-2.37-1.38-3.23c-.88-.86-2.06-1.33-3.31-1.33h0Z"/>
          </g>
          <path class="cls-11" d="m35,39.34s.16.04.27,0,.4-.1.56-.07.44.1.66.11.25-.02.25-.02l1.85.02,1.41-.02.26.03,1.04.08h.41s1.03-.02,1.03-.02l.78.02s1.22,0,1.37-.1l2.47,4.24-14.71.04,2.36-4.3Z"/>
          <path class="cls-6" d="m35.16,39.54s.1.02.19.02.13-.01.13-.01c0,0-.05.08-.16.07s-.16-.08-.16-.08Z"/>
          <path class="cls-6" d="m35.03,39.8s.14.05.27.06.23-.06.36-.09.16,0,.16,0c0,0-.17.04-.26.09s-.23.06-.32.04-.21-.1-.21-.1Z"/>
          <path class="cls-6" d="m36,39.58s.13-.04.19-.02.11.05.11.05c0,0-.12-.03-.2-.01s-.1-.02-.1-.02Z"/>
          <path class="cls-6" d="m34.86,40.01s.13.02.21.07.11.07.21.06.27-.06.27-.06c0,0-.15.1-.25.1s-.19-.02-.3-.08-.13-.08-.13-.08Z"/>
          <path class="cls-6" d="m34.67,40.34s.06-.02.15-.01.13.05.13.05c0,0-.1-.02-.16-.02h-.06s-.06-.02-.06-.02Z"/>
          <path class="cls-6" d="m34.15,41.04s.42-.2.61-.28.29-.11.29-.11l.06.05-.63.4-.34-.06Z"/>
          <path class="cls-6" d="m35.51,40.3s.11-.05.26-.03-.03-.05-.17-.04-.08.07-.08.07Z"/>
          <path class="cls-6" d="m36.05,39.95s-.11.05-.04.05.15,0,.15,0c0,0-.08-.06-.11-.05Z"/>
          <path class="cls-6" d="m43.75,39.79s.05-.04.24-.03.25.05.25.05c0,0-.13-.03-.27-.01s-.22.03-.23,0Z"/>
          <path class="cls-6" d="m44.16,40.08s.05-.09.28-.09.32.04.32.04c0,0-.2-.01-.32,0s-.28.04-.28.04Z"/>
          <path class="cls-6" d="m45.05,40.35s.11-.07.24-.07.13.02.13.02l.03.06s-.1-.01-.2,0-.2,0-.2,0Z"/>
          <path class="cls-6" d="m44.45,40.3s.02.02.09,0,.12-.05.15-.05-.12-.03-.16,0-.08.06-.08.06Z"/>
          <path class="cls-6" d="m45.4,40.69s.04-.06.12-.06.13.04.13.04c0,0,0,.04-.08.01s-.17,0-.17,0Z"/>
          <path class="cls-6" d="m44.9,40.6s.01-.05.12-.04.12.04.12.04c0,0-.07-.02-.14,0s-.1,0-.1,0Z"/>
          <path class="cls-6" d="m33.48,42.1s.28-.16.81-.16.61.08,1.25.13,1.27-.33,2.25-.3.96.22.96.22c0,0-.46-.13-1-.13s-1.42.25-2.21.26-.85-.1-1.23-.09-.83.06-.83.06Z"/>
          <path class="cls-6" d="m33.5,42.39s.39-.12.85-.09.56.16,1.24.16,1.63-.48,2.4-.48,1.53.42,2.58.42.5-.14,1.21-.18.72.17,1.27.1.93-.39.93-.39c0,0,.5-.27,1.19-.04l.34.14-.78.12h-.13s.32-.12.32-.12l.1-.05s-.26-.04-.49-.03-.59.12-.86.23l-.18.08s.63-.07.72-.07.11.05.11.05c0,0-.6.07-.9.11s-.69.04-.69.04l-.02.05s-.19-.15-.88-.12-.63.2-1.32.14-2.11-.38-2.48-.39-1.21.33-1.61.4-1.06.22-1.89-.03c0,0-.26-.13-1.04-.04Z"/>
          <path class="cls-6" d="m33.27,42.72s.24-.16.78-.12.82.21,1.41.21,1.26-.32,1.77-.46,1.33-.17,1.33-.17c0,0-.69.02-1.63.35s-.87.41-1.55.36-1.17-.24-1.41-.24-.7.07-.7.07Z"/>
          <path class="cls-6" d="m39.14,41.95s.28.07.69,0,.55-.13.71-.13h.4s-.25-.02-.57-.07-1.23.2-1.23.2Z"/>
          <path class="cls-6" d="m39.65,42.1s1.17.04,2.1-.18c0,0,.27-.11.37-.16s.22,0,.22,0c0,0,.01.14.49.08s.98-.18,1.09-.23.22-.15.22-.15c0,0,.31-.05.26.04s-.15.1-.39.16-.82.23-1.17.27-.48-.07-.59-.05-.18.09.02.12.25.07.25.07c0,0-.5-.08-.86-.03s-1.81.14-2,.07Z"/>
          <path class="cls-6" d="m44.78,41.35s.15.09.35.04.39-.13.54-.12.25.01.25.01c0,0,.09.1-.03.14s-.1.12-.42.15-.65-.05-.85-.03-.22.06-.22.06c0,0,.19-.05.28,0s.69.09,1.08-.03.3.02.3.02c0,0-.08.14-.28.2s-.29.06-.29.06c0,0,.41.04.57.03s.24.02.24.02l-.41-.75s-.9.15-1.12.19Z"/>
          <path class="cls-6" d="m33.03,43.02s.01-.1.59-.11.72.13.96.17-.6-.1-.91-.09-.64.03-.64.03Z"/>
          <path class="cls-6" d="m32.92,43.31s.38-.06.74-.02.83.1,1.03.07.87-.13,1.53-.37c0,0,.09.07.28.06s.83-.08,1.24-.11.77.05,1.17.12.72.06,1.13-.1.71-.39,1.25-.4,1.11-.06,1.49.03.78.2.95.23.9-.04.9-.04c0,0-.16.12-.5.12s-.33.09-.45.05-.64-.22-1.26-.27-1.3-.02-2.03.27-1.01.2-1.42.17-.71-.2-1.36-.12-1.22.1-1.43.12-.31-.02-.29.04.23.1.35.08.32.02.32.02c0,0-.39-.02-.53.01s-.25,0-.33.04-.61.12-1.07.13-1.23-.11-1.69-.15Z"/>
          <path class="cls-6" d="m36.34,42.93s.57-.38,1.31-.43,1.38.01,1.9.12.63.05.63.05c0,0-.27.2-.86.11s-1.01-.2-1.62-.11-1.31.29-1.38.26Z"/>
          <path class="cls-6" d="m36.26,43.44s.14-.03.31-.04.03-.08.03-.08l-.03-.02s.21-.01.5,0,.65-.05,1.09-.04.52.09.96.06.5-.06.5-.06c0,0,.03,0,.12.09s.6.22,1.93.21l.21.04-4.17.03s.1-.07.26-.07.57,0,.59,0,.21-.02.21-.02c0,0,.12-.04-.24-.04s-.46-.03-.56-.06-.45-.07-.6-.02-.68.05-.79.04-.33-.02-.33-.02Z"/>
          <path class="cls-6" d="m39.81,43.19s.28.13.8,0,1.32-.27,1.46-.27.98.13,1.2.13.6,0,.6,0c0,0,.29.15.5.16s.21.03.21.03c0,0-.13.02-.14.08s0,.08,0,.08c0,0,.02-.06-.16-.12s-.36-.11-.5-.14-.9-.07-1.11-.06-.66,0-1.2.14-1.56.21-1.66-.03Z"/>
          <path class="cls-6" d="m43.94,43.61s.22-.09.35-.09.58.03.61.04.11,0,.11,0l.02.04h-1.09Z"/>
          <path class="cls-6" d="m45.38,43.61s.08-.01.12-.06-.82-.17-.82-.17c0,0,.49.09.72.08s.39,0,.61,0,.3.03.3.03c0,0-.4-.02-.52,0s-.2.04-.12.08.12.04.12.04h-.42"/>
          <path class="cls-6" d="m46.4,43.61s.19-.02.2-.08-.07-.06-.07-.06c0,0,.19-.04.34,0s.33.1.35.11.09.01.09.01l-.92.03Z"/>
          <path class="cls-6" d="m42.73,42.43s.25.1.68.11.86-.09,1.41-.15,1.31-.09,1.5,0c0,0-.53-.05-1.11.02s-1.25.27-1.63.25-.7-.07-.85-.23Z"/>
          <path class="cls-6" d="m45.38,42.06s.14.01.36.02.39.04.39.04c0,0-.04-.06-.24-.08s-.43-.01-.43-.01c0,0-.14,0-.13,0s.05.03.05.03Z"/>
          <path class="cls-6" d="m44.68,42.82s.29.02.51.01.53-.07.53-.07c0,0-.16-.07-.44-.04s-.6.09-.6.09Z"/>
          <path class="cls-6" d="m44.33,43.09s-.02-.07.29-.09.89.03,1.07-.11.18-.15.18-.15c0,0,.26,0,.5.06s.46.08.46.08c0,0-.53-.01-.8.04s-.6.12-.89.11-.72.02-.81.06Z"/>
          <path class="cls-5" d="m40.5,37.79l.8,1.67h-.08s-.7-1.66-.72-1.67Z"/>
          <polygon class="cls-5" points="39.92 38.27 39.92 39.34 39.77 39.36 39.92 38.27"/>
          <polygon class="cls-5" points="38.5 39.38 39.66 37.61 38.25 39.38 38.5 39.38"/>
          <g>
            <g class="cls-17">
              <rect class="cls-58" x="42.57" y="39.08" width=".09" height="2.2"/>
              <rect class="cls-24" x="42.65" y="39.08" width=".09" height="2.2"/>
              <rect class="cls-38" x="42.74" y="39.08" width=".09" height="2.2"/>
              <rect class="cls-38" x="42.82" y="39.08" width=".09" height="2.2"/>
              <rect class="cls-50" x="42.91" y="39.08" width=".09" height="2.2"/>
              <rect class="cls-51" x="42.99" y="39.08" width=".09" height="2.2"/>
              <rect class="cls-40" x="43.08" y="39.08" width=".09" height="2.2"/>
              <rect class="cls-40" x="43.16" y="39.08" width=".09" height="2.2"/>
              <rect class="cls-22" x="43.25" y="39.08" width=".09" height="2.2"/>
              <rect class="cls-53" x="43.33" y="39.08" width=".09" height="2.2"/>
              <rect class="cls-4" x="43.42" y="39.08" width=".09" height="2.2"/>
              <rect class="cls-4" x="43.5" y="39.08" width=".09" height="2.2"/>
              <rect class="cls-2" x="43.59" y="39.08" width=".09" height="2.2"/>
              <rect class="cls-34" x="43.67" y="39.08" width=".09" height="2.2"/>
              <rect class="cls-31" x="43.76" y="39.08" width=".09" height="2.2"/>
              <rect class="cls-33" x="43.85" y="39.08" width=".09" height="2.2"/>
              <rect class="cls-55" x="43.93" y="39.08" width=".09" height="2.2"/>
              <rect class="cls-20" x="44.02" y="39.08" width=".09" height="2.2"/>
              <rect class="cls-59" x="44.1" y="39.08" width=".09" height="2.2"/>
              <rect class="cls-59" x="44.19" y="39.08" width=".09" height="2.2"/>
              <rect class="cls-59" x="44.27" y="39.08" width=".09" height="2.2"/>
              <rect class="cls-56" x="44.36" y="39.08" width=".09" height="2.2"/>
              <rect class="cls-26" x="44.44" y="39.08" width=".09" height="2.2"/>
              <rect class="cls-19" x="44.53" y="39.08" width=".09" height="2.2"/>
              <rect class="cls-27" x="44.61" y="39.08" width=".09" height="2.2"/>
              <rect class="cls-43" x="44.7" y="39.08" width=".09" height="2.2"/>
              <rect class="cls-16" x="44.78" y="39.08" width=".09" height="2.2"/>
              <rect class="cls-32" x="44.87" y="39.08" width=".09" height="2.2"/>
              <rect class="cls-32" x="44.95" y="39.08" width=".09" height="2.2"/>
              <rect class="cls-23" x="45.04" y="39.08" width=".09" height="2.2"/>
              <rect class="cls-47" x="45.12" y="39.08" width=".09" height="2.2"/>
              <rect class="cls-29" x="45.21" y="39.08" width=".09" height="2.2"/>
              <rect class="cls-39" x="45.29" y="39.08" width=".09" height="2.2"/>
              <rect class="cls-1" x="45.38" y="39.08" width=".09" height="2.2"/>
              <rect class="cls-52" x="45.46" y="39.08" width=".09" height="2.2"/>
              <rect class="cls-35" x="45.55" y="39.08" width=".09" height="2.2"/>
              <rect class="cls-35" x="45.63" y="39.08" width=".09" height="2.2"/>
              <rect class="cls-37" x="45.72" y="39.08" width=".09" height="2.2"/>
            </g>
            <g>
              <path class="cls-14" d="m45.05,40.89s0,0,0,0h0Z"/>
              <path class="cls-14" d="m45.05,40.89h0s0,0,0,0Z"/>
              <path class="cls-14" d="m45.01,40.87s.02.01.02.01c0,0-.02-.01-.02-.01Z"/>
              <polygon class="cls-14" points="45.02 40.88 45.03 40.87 45.02 40.87 45.02 40.88"/>
              <polygon class="cls-14" points="45.03 40.88 45.03 40.88 45.02 40.88 45.03 40.88"/>
              <path class="cls-14" d="m44.99,40.85h0s0,0,0,.01c0,0,0,0,.02,0,0,0-.02-.01-.01-.02,0,0,0,0,0,0Z"/>
              <path class="cls-14" d="m44.52,40.56s0,0,0,0c0,0,0,0,0,0Z"/>
              <polygon class="cls-14" points="44.39 40.48 44.38 40.47 44.39 40.47 44.39 40.48"/>
              <path class="cls-14" d="m44.6,40.6s0,0,0,0c0,0,0,0,0,0Z"/>
              <polygon class="cls-14" points="43.82 40.03 43.82 40.03 43.82 40.03 43.82 40.03 43.82 40.03"/>
              <path class="cls-14" d="m44.24,40.39s0,0,0,0c0,0,0,0,0,0Z"/>
              <polygon class="cls-14" points="44.64 40.64 44.64 40.63 44.64 40.64 44.64 40.64 44.64 40.64"/>
              <path class="cls-14" d="m44.42,40.51s0,0,0,0c0,0,0,0,0,0Z"/>
              <path class="cls-14" d="m44.88,40.76s0,0,0,0c0,0,0,0,0,0Z"/>
              <path class="cls-14" d="m44.83,40.73h0s0,0,0,0Z"/>
              <path class="cls-14" d="m44.8,40.71h0s0,0,0,0Z"/>
              <path class="cls-14" d="m44.87,40.76s0-.01,0,0h0s0,0-.01,0c0,0,0,0,0,0,0,0,0,0,0,0,0,0,0,0,.01,0Z"/>
              <path class="cls-14" d="m44.52,40.56s0,0,0,0h0Z"/>
              <path class="cls-14" d="m44.56,40.58h0s0,0,0,0Z"/>
              <path class="cls-14" d="m44.7,40.68h0s0,0,0,0Z"/>
              <path class="cls-14" d="m44.55,40.57h0s0,0,0,0Z"/>
              <path class="cls-14" d="m44.66,40.65s0,0,0,0c0,0,0,0,0,0Z"/>
              <path class="cls-14" d="m43.38,39.47s0,0,0,0c0,0,0-.01,0,0,0,0,0,0,0,0h0s0,0,0,0Z"/>
              <path class="cls-14" d="m43.79,39.99h0s0,0,0,0c0,0,0,0-.01,0,0,0,0,0,0,0,0,0,0,0,0,0Z"/>
              <polygon class="cls-14" points="43.79 40 43.79 40 43.79 40 43.79 40 43.79 40"/>
              <path class="cls-14" d="m43.45,39.57s0,0,0,0c0,0,0,0,0,0Z"/>
              <path class="cls-14" d="m44.29,40.34s0,0,0,0c0,0,0,0,0,0Z"/>
              <polygon class="cls-14" points="43.86 40.05 43.86 40.05 43.86 40.05 43.86 40.05"/>
              <path class="cls-14" d="m43.62,39.9s0,0,0,0h0s0,0,0,0Z"/>
              <polygon class="cls-14" points="43.38 39.46 43.38 39.46 43.38 39.46 43.38 39.46"/>
              <path class="cls-14" d="m43.51,39.77s0,0,0,0c0,0,0,0,0,0Z"/>
              <path class="cls-14" d="m43.81,40.02h.02s0,0,0,0c0,0,0,0-.01,0Z"/>
              <path class="cls-14" d="m43.68,39.97h0s.03.04.05.04c.01.03.02,0,.03.03h0c.06.05.12.1.19.14h0c.09.07.19.13.28.2.01,0,0,0,.02,0,0,0,.01,0,0,0,0,0,0,0,0,0,.01,0,.02.02.03.02h0s0,0,.01,0c0,0,0,0,0,0,.03,0,.01.01.03.02,0,0,.03,0,.05,0h0s0,.01-.02,0c0,0,.02.01.03.02,0,0,0,0,0,0,0,0,0,0,0,.01h0s0,0,.01,0c0,0,0,.01,0,.01.01,0,.01,0,.02.01,0,0,0,0,0,0h-.01s0,0,0,0c0,0,.02,0,0,0,.02,0,.02.01.04.02,0,0,0,0,0,0,.01,0,0,0,0,0,0,0,0,0,.02,0,0,0,0,0,0,0,0,0-.03-.02-.03-.01,0,0-.01,0-.02,0,0,0,.01.02.02.02h0s.01,0,.01,0c0,0,0,0,0,0,0,0,0,0,0,0,0,0,.01,0,.03,0,0,0,0-.01-.02-.02,0,0,0,0,.01,0,0,0,0,0,0,0h0s0,0,0,.02c0,0,.01,0,.01,0,0,0,0,0,0,0,0,0,0,0,0,0,0,0,0,0,0,0,0,0,.01,0,.02,0,0,0,0,0,0,0,0,0,.02,0,.02.01h0s.01.01,0,.01h.01s0,.01,0,.01c.01,0,.01,0,.02,0,0,0,.02.02.03.02,0,0,0,0,0,0h0s0,0,.02,0c0,0,0,0,0,0,0,0,0,0,0,0,0,0,0,0,0,0h0s.01,0,.02.01c0,0,0,0,0,0,0,0,0,.01,0,.01,0,0,0,0,0,0h0s0,0,0,0c0,0,0,0,0,0h.01s0,.01,0,.01h0s0,0,0,0c0,.02.02.01.03.03,0,0,0,0,0,0,0,0,.01,0,.02,0,0,0,.02.03.01.03.01,0,0,0,0,0h0s0,0,0-.01c0,0,.01,0,.02,0h0s.01,0,.02,0c0,0,0,0,0,.01h.01s0,0,0,0c0,0,.01,0,.02,0,0,0,.01.01,0,.01,0,0,0,0,0,0,0,0,0,0,0,0,0,0,.01,0,.02,0,0,0,0,0,0,0,0,0,0,0,.01,0,0,0,0,0,.01,0,0,0,0-.01,0-.01,0,0,0,0,.01,0h0s0,0,.02.01c0,0,0,0-.01,0,0,0,.02,0,.02,0h0s0,.02.01.01c0,0-.01,0-.01,0,.01.01.01,0,.02.01h0s.01,0,.01,0c0,0,0,0,0,0,0,0,.02,0,.02,0h0s.02,0,.02,0c0,0,0,0-.01,0,0,0,.01,0,.02,0,0,0,0,0,0,0,0,0-.02-.01-.02,0h0s0,0,0,0c0,0,0,0,0,0-.01,0,0,0-.02,0h0s-.01,0-.02,0c0,0-.01,0-.02-.01,0-.01.02.01.03.01,0,0,0,0,.01,0h-.02s0-.02,0-.02h0s0,0-.01,0c0,0,0,0,0,0,0,0,0,0-.01,0,0,0,0,0,0,0,0,0,0,0-.02-.01,0,0-.03,0-.02,0h-.02s.01,0,.01-.01h.01s-.03,0-.03-.02c0,0,0,0-.01-.01h0s0,0,0,0c0,0,0,0,0,0,0,0,0,0,0,0,0,0,0,0,0,0,0,0,0,0-.01,0h0s0,0,0,0c0,0,0,0,0,0,0,0,0,0,0,.01-.01-.01-.02-.02-.03-.03,0,0,0,0,0,0,0,0-.01,0-.01,0,0,0,0,0,0,0,0,0,0,0,0,0,0,0,0,0,0,0,0,0-.01,0-.02,0,0,0,0,0,0,0,0,0-.01,0-.02,0,.01,0,0-.01,0,0,0-.01,0,0-.02,0h0s.01,0,.01,0h0s.02.01.03.01l-.02-.02s-.06-.04-.08-.05h0s0,0,0,0h0s0,0,0,0c0,0-.01-.01-.02-.02t0,0s0,0-.01,0c0,0,0,0,0,0,0,0,0,0,0,0,0,0,0,0,0-.01,0,0,0,0,0,0,0,0,0,0,0,0h0s0,0,0,0c-.01,0-.02,0-.04-.01,0,0,0,0,0,0,0,0-.02,0-.03-.01,0,0,0,0,0,0-.03-.02-.05-.04-.07-.06h-.01s0,0,0,0c-.03-.02-.05-.04-.08-.05,0,0,0,0,0-.01-.02-.01-.03-.01-.05-.02,0,0,.01,0,0,0,0,0,0,0,0,0h0s0,0-.02-.01c-.02-.01-.03-.02-.05-.02-.01-.01,0,0,0,0,0,0,0,0,.01,0,0,0-.01,0-.01-.01,0,0-.01,0-.02,0,0,0,0,0,0,0,0,0-.02-.01-.02-.02-.04-.02-.07-.05-.11-.08,0,0,0,0,0,0-.01,0,0,0-.02,0h0s-.03-.01-.04-.02c0,0,0,0,0,0,0,0,0-.02,0-.02v.02s-.01,0-.01,0c0,0,0-.01,0-.01,0,0,0,0,.01,0,0,0-.01-.01,0-.01,0,0,0,0,0,0h0s0,0,0,0c0,0-.01,0-.02-.01h-.01s0,0-.01-.01h0s0,0-.01-.01c0,0,0,0,0,0h0s0,0,0,0c0,0-.02,0-.03-.01,0,0,.01,0,.01,0-.02-.01-.03,0-.04-.01-.01-.01-.01,0-.03-.02,0,0,0,0,0-.01h0s0,0,0,0c0,0-.02,0-.03-.01h0s-.02,0-.03-.01c-.01,0-.01,0-.02,0,0,0,0,0,0-.01,0,0,0,0,.01.01.02,0,.03,0,.04.02.01,0,0,0-.01-.01,0,0,0,0,0,0,0,0,0,0,0,0,0,0,.01,0,.02,0,0,0-.01,0-.02,0,0,0-.01-.01-.01-.02,0,0-.01,0-.02,0h0s-.01,0-.02,0c0,0,0,0,0,0,0,0-.02,0-.02-.01,0,0,0,0,0,0,0,0,.01,0,.02.02h0s0,.01,0,0c0,0,0,0,0,0,0,0,0,0-.01,0h0s-.01,0-.02,0c0,0-.01-.01,0-.02h.01s-.01,0-.02,0c0,0,0,0,0,0,0,0,0,0,0,0,0,0,0,0,0,0,0,0-.01,0-.02-.01h0s0,0,0,0c0,0,0,.01,0,0-.01,0,0-.01,0-.02,0,0,0,0,.02.01,0,0,0,0-.02-.02,0,0,.01,0,.02,0,0,0-.01,0-.02-.01,0,0,.01,0,.01,0h0s0-.01.01,0c0,0,0,0-.01-.01,0,0,0,.01,0,0h0s.01,0,0-.01h0s0,0,0,0c0,0-.01,0-.02,0,0,0,0,0,0-.01-.01,0-.03-.02-.04-.02,0,0,0,0,0-.01,0,0,.01,0,.01,0,0,0-.01,0-.01,0,0,0,0,0-.01-.01,0,0,0,0,0,0,0,0,0,0-.01,0,0,0,0,0,0,0,0,0-.01,0-.01,0,0-.01-.01-.01,0-.02-.01-.01,0,0,0,0,0,0-.01-.01-.01-.02,0,0,0,0,0,0h0s-.02,0-.03-.03c0,0,0,0,.01,0,0,0-.01-.01,0,0,0,0,0-.01,0-.01,0,0-.01,0-.02,0,0,0,0-.02,0-.02-.02-.01-.02-.03-.04-.05h0s0,.01-.01,0c0,0,0-.01,0-.02-.01-.02-.03-.03-.04-.05,0,0,0,0,0,0,0-.01-.02-.02-.02-.04h0s-.03-.04-.04-.05c0,0,0,0,0,0,0-.01-.02-.03-.02-.03,0-.02,0,0-.01-.03,0,0,0,0,0,0,0,0,0-.01-.01-.02-.01-.01-.02-.01-.03-.04,0,0,0,.01.02,0,0,0,0,0,0-.01,0,0,0,0,0,0,0,0-.02-.01-.02-.01,0,0,0,0,0,0,0,0-.01-.02-.02-.03,0,0,0,.01,0,.01,0-.01-.02-.01-.02-.02,0-.01.01,0,.02,0,0,0,0-.01,0,0,0-.01-.01-.02-.02-.02h0s-.02-.02-.03-.04h0s0,0-.01,0c0,0,0-.01,0,0-.01,0-.02-.03-.03-.03,0,0,0,0,0,0,0,0,0,.01.01.02,0,0,0-.01,0-.01,0,0-.02-.02-.03-.02,0,0,0-.01,0-.01-.02-.02,0,.02-.02,0,0-.01.01,0,0,0h0s-.01,0-.02-.01c0,0,0,0,0,0,0-.01-.02-.01-.02-.02h0s-.01-.02-.02-.03c0,0,0,0,0,0,0-.01,0,0,0-.02h0s0,.02.01.02c0,0,0,.02,0,.01h0s.02.05.03.07c.01.01.01.03.03.04,0,0,0,0,.01.01,0,0,0,0,0,0,0,0,0,0,0,0,0,0,0,.02.01.03,0,0,0,0,0,0,0,0,0,0,0,0,0,0,0,0,0,0,0,.01.01.02.02.03,0,0,.01.01.02.02,0,0,0,0,0,.01h0s0,.02.01.02h0s.01.02.01.03c.05.05.05.1.1.16,0,0,0,0,0,0,0,0,0,0,0,.01,0,0,0,0,0,0h0s0,0,0,0c0,0,0,0,0,0,0,0,.01,0,.01.01,0,0,0,0,0,0,0,0,0,0,0,.01,0,0,0,0,0,0v.02s.02.02.03.02c0,0,0-.01-.02-.01h0s0,0,0,0h0s0,0,0,0c0,0,0,0,0,0,0,0,0,0,0,0h0s0,.01,0,.01c.01.02.02.02.03.04,0,0,.01,0,.01,0,0,0,0,0,0,0h0s.01.03.02.04h0s.01,0,.02.02h0s.01,0,.02.01c0,0,0-.01,0-.01,0,0,0,.02,0,.01,0,0,0,0,0,0h0s0,0,0,0c0,0,.01.01.02.02h0s0,0,0,0c0,0,.02.01.02.02h0s0,0,0,0c0,0,0,.01.01.02.02,0,.02.03.04.04Zm1.02.71h0s0,0,0,0Zm-.08-.06s0,0,0,0c0,0-.02-.01-.02-.02,0,0,0,0,0,0,0,0,0,0,0,0,0,0,.02.02.02.02Zm.2.1s0,0,0,0h0s0,0,0,0Zm-.05-.03s0,0,0,0c0,0,0,0,0,0Zm-.09-.07s0,0-.01,0c0,0,0,0,.01,0Zm-.61-.42s.01,0,0,0c0,0,0,0,0,0,0,0,0,0,0,0,0,0,0,0,0,0Zm-.29-.19s0,0,0,0h0s0,0,0,0c0,0,0,0,0,0,0,0-.01,0,0,.01Z"/>
              <path class="cls-14" d="m43.89,40.05s0,0,0,0c0,0,0,0,0,0Z"/>
              <path class="cls-14" d="m43.78,40s0,0,0,0c0,0,0,0,0,0Z"/>
              <path class="cls-14" d="m44.96,40.85h0s0,0,0,0c.01,0,.01,0,.02,0-.01,0-.01,0-.03-.01h0Z"/>
              <polygon class="cls-14" points="44.97 40.83 44.97 40.82 44.97 40.82 44.97 40.83"/>
              <path class="cls-14" d="m44.87,40.74h0s0,0,0,0Z"/>
              <path class="cls-14" d="m44.88,40.8h0s0,0-.01,0c0,0,0,0,0,0Z"/>
              <path class="cls-14" d="m44.84,40.72s0,0-.01,0c0,0,0,0,.01,0Z"/>
              <path class="cls-14" d="m44.82,40.77s0,0,.01.01c0,0,0-.01-.01-.01Z"/>
              <path class="cls-14" d="m44.79,40.7s0,0,0,0c0,0,0,0,0,0,0,0,0,0,.02,0,0,0-.01-.01,0-.02,0,0-.01,0-.01,0Z"/>
              <path class="cls-14" d="m44.81,40.76s0,0,.01.01c0,0,0,0,0-.01h0s0,0,0,0Z"/>
              <path class="cls-14" d="m44.77,40.68h0s.02.01.02.01c0,0-.02-.01-.02-.01Z"/>
              <path class="cls-14" d="m44.79,40.73h0s0,0,0,0c0,0,0,0,0,0,0,0,0,0,0,0Z"/>
              <path class="cls-14" d="m44.77,40.72h0s0,0,0,0c.01,0,0,0,0,0Z"/>
              <path class="cls-14" d="m44.76,40.71h0s-.02,0-.02,0c0,0,0,0,.02,0Z"/>
              <path class="cls-14" d="m44.62,40.58s0,0,0,0c0,0,0-.01,0,0Z"/>
              <path class="cls-14" d="m44.63,40.64s-.02,0-.02-.01c0,0,.02.01.02.01Z"/>
              <path class="cls-14" d="m44.6,40.62s0,0,0,0c0,0,0,0,0,0Z"/>
              <path class="cls-14" d="m44.38,40.48s0,0,0,0c0,0,0,0,0,0Z"/>
              <path class="cls-14" d="m44.38,40.48s.01,0,.01,0c0,0-.01,0-.02,0,0,0,0,0,0,0Z"/>
              <path class="cls-14" d="m44.34,40.45s0,0,0,0c0,0,0,0,0,0Z"/>
              <path class="cls-14" d="m44.04,40.15s0,0,0,0c0,0,0,0,0,0Z"/>
              <polygon class="cls-14" points="44.03 40.15 44.03 40.15 44.02 40.14 44.03 40.15"/>
              <path class="cls-14" d="m44,40.12s0,0,0,0c0,0,0,0,0,0Z"/>
              <path class="cls-14" d="m44,40.12h0s0,0,0,0Z"/>
              <polygon class="cls-14" points="44 40.12 44 40.12 44 40.12 44 40.12"/>
              <path class="cls-14" d="m43.99,40.11h0s0,0,0,0h0Z"/>
              <path class="cls-14" d="m43.96,40.1s-.02,0-.02-.01c-.02,0,0,.01-.02,0,.02.02.02,0,.03.01,0,0,0,0,.01,0Z"/>
              <path class="cls-14" d="m43.96,40.11s0,0,0,0c0,0,0,0,0,0Z"/>
              <polygon class="cls-14" points="43.93 40.08 43.93 40.07 43.92 40.07 43.93 40.08"/>
              <path class="cls-14" d="m43.91,40.06h0s0,0,0,0Z"/>
              <path class="cls-14" d="m43.89,40.04s-.01,0,0,0h0s0,0,0,0Z"/>
              <polygon class="cls-14" points="43.82 40 43.82 40.01 43.81 40 43.82 40"/>
              <path class="cls-14" d="m43.8,40.02s0,0,.01.01c0,0,0,0-.01-.01Z"/>
              <path class="cls-14" d="m43.81,39.99s0,0,0,0c0,0,0,0,0,0Z"/>
              <path class="cls-14" d="m43.79,39.98s0,0,0,0c0,0-.01-.01-.02-.01,0,0,0,0,0,0,0,0,.02,0,.02.01h.01s0,0-.01,0Z"/>
              <path class="cls-14" d="m43.8,40.01h0s0,0,0,0c0,0,0,0,.01,0Z"/>
              <polygon class="cls-14" points="43.74 39.94 43.73 39.93 43.73 39.94 43.74 39.94"/>
              <polygon class="cls-14" points="43.74 39.93 43.74 39.93 43.73 39.93 43.74 39.93"/>
              <polygon class="cls-14" points="43.73 39.92 43.73 39.92 43.74 39.93 43.73 39.92"/>
              <polygon class="cls-14" points="43.71 39.9 43.71 39.91 43.72 39.91 43.71 39.9"/>
              <polygon class="cls-14" points="43.59 39.88 43.6 39.87 43.59 39.87 43.59 39.88"/>
              <path class="cls-14" d="m43.59,39.86h-.01s.01,0,.02.01c0,0,0,0-.01-.01h0Z"/>
              <path class="cls-14" d="m43.46,39.69s0,0,0,0c0,0-.01-.02-.02-.02,0,0,0,0,0,0h0s0,0,0,0c0,0,0,0,.01.01Z"/>
              <path class="cls-14" d="m43.2,39.21s0,0,0,0c0,0,0,0,0,0Z"/>
            </g>
            <g class="cls-49">
              <rect class="cls-58" x="41.21" y="38.92" width=".05" height="2.46"/>
              <rect class="cls-58" x="41.26" y="38.92" width=".1" height="2.46"/>
              <rect class="cls-24" x="41.36" y="38.92" width=".1" height="2.46"/>
              <rect class="cls-38" x="41.46" y="38.92" width=".1" height="2.46"/>
              <rect class="cls-38" x="41.56" y="38.92" width=".1" height="2.46"/>
              <rect class="cls-50" x="41.66" y="38.92" width=".1" height="2.46"/>
              <rect class="cls-51" x="41.76" y="38.92" width=".1" height="2.46"/>
              <rect class="cls-40" x="41.86" y="38.92" width=".1" height="2.46"/>
              <rect class="cls-40" x="41.96" y="38.92" width=".1" height="2.46"/>
              <rect class="cls-22" x="42.06" y="38.92" width=".1" height="2.46"/>
              <rect class="cls-53" x="42.16" y="38.92" width=".1" height="2.46"/>
              <rect class="cls-4" x="42.26" y="38.92" width=".1" height="2.46"/>
              <rect class="cls-4" x="42.36" y="38.92" width=".1" height="2.46"/>
              <rect class="cls-2" x="42.46" y="38.92" width=".1" height="2.46"/>
              <rect class="cls-34" x="42.56" y="38.92" width=".1" height="2.46"/>
              <rect class="cls-31" x="42.67" y="38.92" width=".1" height="2.46"/>
              <rect class="cls-33" x="42.77" y="38.92" width=".1" height="2.46"/>
              <rect class="cls-55" x="42.87" y="38.92" width=".1" height="2.46"/>
              <rect class="cls-20" x="42.97" y="38.92" width=".1" height="2.46"/>
              <rect class="cls-59" x="43.07" y="38.92" width=".1" height="2.46"/>
              <rect class="cls-59" x="43.17" y="38.92" width=".1" height="2.46"/>
              <rect class="cls-59" x="43.27" y="38.92" width=".1" height="2.46"/>
              <rect class="cls-56" x="43.37" y="38.92" width=".1" height="2.46"/>
              <rect class="cls-26" x="43.47" y="38.92" width=".1" height="2.46"/>
              <rect class="cls-19" x="43.57" y="38.92" width=".1" height="2.46"/>
              <rect class="cls-27" x="43.67" y="38.92" width=".1" height="2.46"/>
              <rect class="cls-43" x="43.77" y="38.92" width=".1" height="2.46"/>
              <rect class="cls-16" x="43.87" y="38.92" width=".1" height="2.46"/>
              <rect class="cls-32" x="43.97" y="38.92" width=".1" height="2.46"/>
              <rect class="cls-32" x="44.07" y="38.92" width=".1" height="2.46"/>
              <rect class="cls-23" x="44.18" y="38.92" width=".1" height="2.46"/>
              <rect class="cls-47" x="44.28" y="38.92" width=".1" height="2.46"/>
              <rect class="cls-29" x="44.38" y="38.92" width=".1" height="2.46"/>
              <rect class="cls-39" x="44.48" y="38.92" width=".1" height="2.46"/>
              <rect class="cls-1" x="44.58" y="38.92" width=".1" height="2.46"/>
              <rect class="cls-52" x="44.68" y="38.92" width=".1" height="2.46"/>
              <rect class="cls-35" x="44.78" y="38.92" width=".1" height="2.46"/>
              <rect class="cls-35" x="44.88" y="38.92" width=".1" height="2.46"/>
              <rect class="cls-37" x="44.98" y="38.92" width=".1" height="2.46"/>
            </g>
            <g>
              <path class="cls-14" d="m43.32,40.25s0,0,.01,0c0,0,0,0-.01,0Z"/>
              <polygon class="cls-14" points="42.8 39.85 42.79 39.85 42.79 39.86 42.8 39.85"/>
              <path class="cls-14" d="m42.79,39.86h-.01s.01,0,.01,0Z"/>
              <path class="cls-14" d="m43.41,40.22s.01,0,.02,0h-.02Z"/>
              <path class="cls-14" d="m43.38,40.14s0,0,0,0c0,0,0,0,0,0Z"/>
              <path class="cls-14" d="m43.8,40.58s0,0,0,0c0,0,0,0,0,0Z"/>
              <polygon class="cls-14" points="43.85 40.59 43.86 40.59 43.86 40.59 43.85 40.59"/>
              <path class="cls-14" d="m43.84,40.57h0s0,0,0,0Z"/>
              <path class="cls-14" d="m44.13,40.67h0s0,0,0,0Z"/>
              <path class="cls-14" d="m43.79,40.58s0,0,.01,0c0,0-.01,0-.01,0Z"/>
              <path class="cls-14" d="m43.31,40.25s0,0,0,0c0,0,0,0,0,0Z"/>
              <path class="cls-14" d="m43.44,40.24h0s0,0,0,0Z"/>
              <path class="cls-14" d="m42.61,39.7s-.01,0-.02,0c0,.01.01.01.02,0Z"/>
              <path class="cls-14" d="m43.67,40.48s.02.01.03-.01c-.01,0-.02,0-.02-.02.02,0,.02.01.04,0h-.02s.02-.03.01-.03c-.03.02-.04-.04-.05-.05h0s-.01-.03-.01-.03c0,0,0,0,0,0,0,0,0,0,0,0,0-.02,0-.04-.03-.05-.02.01-.06-.03-.08-.03.01,0,.02,0,.02.02v.02s0-.02-.03-.02c-.02.03.02.02.03.03,0,0-.02,0-.03,0,.02.02.04.04.07.03,0,.01,0,.02-.01.02.03,0,0,.02.03.02-.02.02-.04-.01-.07,0,0-.03-.05-.03-.08-.05.01-.02.04-.03.04-.04-.02-.03-.03,0-.05,0-.01-.02.02-.03,0-.05h.02s-.02,0-.03-.01c0,.01,0,.02,0,.03,0,.01-.02,0-.02,0h0s-.03.03-.04,0c.02,0,0-.02,0-.03h0s-.03-.01-.04-.02h0s-.03.02-.04,0c0,0,.04-.02.02-.03.01-.01.03,0,.04.01-.01-.01,0-.04.01-.03,0-.02-.02,0-.02-.02,0,0,0,.01-.01.02.01-.02-.03-.02-.04,0h.02s-.04.02-.04.03c.01-.03-.05-.02-.05-.05v.02s-.09-.02-.13-.03c.02,0,.04-.03.06,0-.03-.03.01-.04.02-.06-.02-.03-.03.02-.05.03h.02c-.05.03-.06-.05-.11-.05,0-.01.01,0,.02,0,0-.03-.02,0-.03,0-.01-.02-.02-.04,0-.06-.01-.02-.01.02-.03.02h0s-.04,0-.04,0c0-.02-.02-.05,0-.08-.04-.02-.06.05-.09.04,0-.03.02-.02.03-.03h-.02s.04,0,.07-.05c-.05.02-.03,0-.08,0h0s-.04-.02-.06-.02c.02-.01.04,0,.05,0,0-.03-.06-.05-.1-.02,0-.01-.01-.04.01-.05-.03-.03-.05.04-.07,0l.02-.02c0-.06-.09-.02-.09-.08l-.03.03s0-.03,0-.05h.02s-.03.01-.03-.02c0,0-.01.04-.02.05.04.02.06.05.09.08.03.03.06.06.1.07,0,0,0-.01,0-.02,0,.01.02.02,0,.03h0s0,.06.02.06c.02-.02.03.04.05,0v.03s.02-.03.03-.03c0,.01,0,.03-.02.03.03.05.09.08.15.1h-.02s.06,0,.02.04c.04,0,.06.05.09.01-.01.05.05.05.08.07.02-.04.03,0,.05,0-.01.03-.04,0-.06.02.06-.02.08.09.13.03,0,0,0,0,0,0,0,0,0,.02.01.03.01,0,0-.02.02-.02.01.01,0,.02,0,.03.03,0,.07.02.09,0,0,.01,0,.03,0,.03.05,0,.03.03.08.04-.01,0-.02.02-.04,0,0,.04.06.03.08.07h.02s0,.02,0,.01c.02.03.05.03.07.04,0,0,0,0,0,0l.03.02s.02,0,.03-.02c-.01,0-.02,0-.04,0Z"/>
              <polygon class="cls-14" points="43.71 40.49 43.71 40.48 43.71 40.48 43.71 40.49"/>
              <path class="cls-14" d="m43.46,40.2s0,.01,0,.01c0,0,0,0,0-.01Z"/>
              <path class="cls-14" d="m44.05,40.67s-.02-.01-.03-.03c.02,0,.02,0,.02-.01-.03.01-.02-.02-.05-.04,0,0,.02,0,.03,0-.02,0-.05-.02-.07,0-.03-.02-.05-.04-.07-.05.03,0,.02-.01.04-.02-.03,0-.1,0-.15,0,0-.02,0-.03.03-.04-.03-.04-.02.01-.05-.02h.01s-.03.03-.05.04l.04.02s-.03,0-.04,0c-.02,0,.01.03,0,.04.01,0,.03,0,.04,0h0s.04.02.05.03c0,0,0,0,0,0,.01,0,.02,0,.04,0h0s.07,0,.06-.03l.04.03s-.04.03-.07.02h0s.06.02.06,0c.04-.03.06.04.11.04,0,.01-.02,0-.04,0-.01,0-.02,0-.01-.02-.04-.02-.01.04-.06,0-.02-.02.04,0,0-.02l-.04.02s.04.02.06.02c.05.02.09.04.12.06.03.02.04.03.04.03.13.08.27.15.4.23.04.02.06.03.08.04,0,0-.03-.02-.02-.02,0,0-.02,0-.04-.02,0,0,.02.01.02,0h0s0,0,.01,0c-.02-.02-.06-.05-.09-.05-.02-.02.02,0,.03,0-.06-.05-.11-.08-.17-.13,0,.01-.01,0-.03,0h0s-.01,0,0,0c-.03-.04-.06-.01-.09-.02h0s-.03-.02-.05-.03c-.03-.04.03.02.04,0h-.01s.03-.01.04-.01c-.04-.01-.04-.04-.09-.05.01,0,.05.01.06.02-.01,0-.04-.02-.03-.03h0s0,0,0-.01c-.05-.04-.03.03-.08,0Z"/>
              <path class="cls-14" d="m43.53,40.31s.01,0,.02.01c0,0-.01,0-.02-.01Z"/>
              <path class="cls-14" d="m43.66,40.34s0,0,0,0c0,0,0,0,0,0Z"/>
              <path class="cls-14" d="m43.68,40.32s0,0-.02.01c.01,0,.03.01.02-.01Z"/>
              <path class="cls-14" d="m42.11,39.09s-.02-.01-.02,0h.02s0,0,0,0Z"/>
              <path class="cls-14" d="m42.14,39.13l.02.02s.01,0,.02,0c-.02-.02-.02,0-.04-.02Z"/>
              <path class="cls-14" d="m42.19,39.17h0s0,0,0,0Z"/>
              <path class="cls-14" d="m42.19,39.17h.02s-.02-.01-.03-.02h0s0,.02,0,.02h.01s0,0,0,0Z"/>
              <path class="cls-14" d="m42.21,39.19s0,0,0,0c0,0,0,0,0,0Z"/>
              <path class="cls-14" d="m42.24,39.25s.01,0,.02,0c-.01-.02-.03,0-.04-.02.03.01,0-.01,0-.03,0,.01,0,.03.01.05h0s0,0,0,.01Z"/>
              <path class="cls-14" d="m42.35,39.31h-.03s-.02-.03,0-.04c0,0-.02,0-.03,0,0-.01,0-.02-.02-.02.02.04.01.03.04.06,0,0,0,0,0,0v.03s.05,0,.05-.02Z"/>
              <path class="cls-14" d="m42.36,39.35s-.04,0-.04,0c.01,0,.03.01.04.02,0,0-.02-.02,0-.03Z"/>
              <path class="cls-14" d="m42.38,39.37s-.01.04.02.03c-.02-.01.01-.03-.02-.03Z"/>
              <path class="cls-14" d="m42.48,39.49l-.02-.04s.02,0,.04,0c-.02-.03-.02-.01-.05-.01,0,0-.03,0-.04,0,.03,0,.03.03.03.04,0,.02,0,.03.04.02Z"/>
              <polygon class="cls-14" points="42.44 39.41 42.43 39.42 42.45 39.42 42.44 39.41"/>
              <path class="cls-14" d="m42.52,39.58c-.01.05.05.01.06.05,0,0,0,0-.01,0h.02s0,.02,0,.02c.02-.02.04-.01.07-.02,0-.04-.03.02-.03-.02.01,0,.03-.02.04-.02-.02,0-.03.01-.05.02-.01,0,0-.02,0-.03-.02,0-.05.03-.06,0,0-.03.03-.02,0-.03-.02.04-.02-.02-.04-.01-.01-.02,0-.05,0-.06-.02.02-.05.03-.07.02.01,0,.03,0,.04,0l-.02.04s.03.01.05.03h0Z"/>
              <path class="cls-14" d="m42.65,39.59s0,0,.01,0c0,0,0,0-.01,0Z"/>
              <polygon class="cls-14" points="42.52 39.47 42.53 39.48 42.53 39.46 42.52 39.47"/>
              <path class="cls-14" d="m42.69,39.58s-.01,0-.01,0h.02s0,0,0,0Z"/>
              <polygon class="cls-14" points="42.69 39.61 42.68 39.64 42.7 39.63 42.69 39.61"/>
              <path class="cls-14" d="m43.05,39.95s-.02,0-.03.02c.02.02.01-.02.03-.02Z"/>
              <path class="cls-14" d="m43.32,40.11s-.03-.01-.05-.02c0,.02.03.02.05.02Z"/>
              <path class="cls-14" d="m43.46,40.12s-.01,0,0,.01l-.03.02s.03-.02.04-.03Z"/>
              <path class="cls-14" d="m43.59,40.21h-.03s0,0,0,0c-.01,0-.02.01-.03.02.02,0,.04,0,.05-.02Z"/>
              <path class="cls-14" d="m43.51,40.22s0,0,0,0c0,0,0-.01,0,0Z"/>
              <path class="cls-14" d="m43.53,40.23s0,0,0,0c0,0,0,0-.01,0,0,0,0,0,0,0Z"/>
              <path class="cls-14" d="m43.59,40.23l.04.02v-.02s-.02-.02-.04,0Z"/>
              <path class="cls-14" d="m43.76,40.38v.02s.06,0,.06.04c0-.02.03,0,0-.03-.02,0-.05-.02-.06-.03Z"/>
              <path class="cls-14" d="m43.83,40.46s0,0,0,.01c0,0,.02,0,.02,0-.02.01,0-.02-.02-.01Z"/>
              <path class="cls-14" d="m43.93,40.53s-.02,0,0,0c.02.01.02,0,.04,0-.01-.02-.04,0-.03,0Z"/>
              <path class="cls-14" d="m44.03,40.72s-.01-.02-.02-.02c0,0,.01,0,.02.02Z"/>
              <polygon class="cls-14" points="44.08 40.64 44.08 40.64 44.06 40.65 44.08 40.64"/>
              <polygon class="cls-14" points="44.2 40.72 44.22 40.72 44.2 40.71 44.2 40.72"/>
              <path class="cls-14" d="m44.22,40.74h.02s0,0,0,0c0,0,0,0-.01,0Z"/>
              <polygon class="cls-14" points="44.28 40.78 44.27 40.77 44.25 40.76 44.28 40.78"/>
              <path class="cls-14" d="m44.57,41.01s.01,0,.02.01c0,0,0-.01-.02-.01Z"/>
            </g>
            <g class="cls-30">
              <rect class="cls-58" x="39.59" y="38.9" width=".11" height="2.63"/>
              <rect class="cls-58" x="39.7" y="38.9" width=".13" height="2.63"/>
              <rect class="cls-24" x="39.83" y="38.9" width=".13" height="2.63"/>
              <rect class="cls-38" x="39.96" y="38.9" width=".13" height="2.63"/>
              <rect class="cls-38" x="40.09" y="38.9" width=".13" height="2.63"/>
              <rect class="cls-50" x="40.22" y="38.9" width=".13" height="2.63"/>
              <rect class="cls-51" x="40.35" y="38.9" width=".13" height="2.63"/>
              <rect class="cls-40" x="40.49" y="38.9" width=".13" height="2.63"/>
              <rect class="cls-40" x="40.62" y="38.9" width=".13" height="2.63"/>
              <rect class="cls-22" x="40.75" y="38.9" width=".13" height="2.63"/>
              <rect class="cls-53" x="40.88" y="38.9" width=".13" height="2.63"/>
              <rect class="cls-4" x="41.01" y="38.9" width=".13" height="2.63"/>
              <rect class="cls-4" x="41.14" y="38.9" width=".13" height="2.63"/>
              <rect class="cls-2" x="41.27" y="38.9" width=".13" height="2.63"/>
              <rect class="cls-34" x="41.4" y="38.9" width=".13" height="2.63"/>
              <rect class="cls-31" x="41.53" y="38.9" width=".13" height="2.63"/>
              <rect class="cls-33" x="41.66" y="38.9" width=".13" height="2.63"/>
              <rect class="cls-55" x="41.79" y="38.9" width=".13" height="2.63"/>
              <rect class="cls-20" x="41.92" y="38.9" width=".13" height="2.63"/>
              <rect class="cls-59" x="42.05" y="38.9" width=".13" height="2.63"/>
              <rect class="cls-59" x="42.18" y="38.9" width=".13" height="2.63"/>
              <rect class="cls-59" x="42.32" y="38.9" width=".13" height="2.63"/>
              <rect class="cls-56" x="42.45" y="38.9" width=".13" height="2.63"/>
              <rect class="cls-26" x="42.58" y="38.9" width=".13" height="2.63"/>
              <rect class="cls-19" x="42.71" y="38.9" width=".13" height="2.63"/>
              <rect class="cls-27" x="42.84" y="38.9" width=".13" height="2.63"/>
              <rect class="cls-43" x="42.97" y="38.9" width=".13" height="2.63"/>
              <rect class="cls-16" x="43.1" y="38.9" width=".13" height="2.63"/>
              <rect class="cls-32" x="43.23" y="38.9" width=".13" height="2.63"/>
              <rect class="cls-32" x="43.36" y="38.9" width=".13" height="2.63"/>
              <rect class="cls-23" x="43.49" y="38.9" width=".13" height="2.63"/>
              <rect class="cls-47" x="43.62" y="38.9" width=".13" height="2.63"/>
              <rect class="cls-29" x="43.75" y="38.9" width=".13" height="2.63"/>
              <rect class="cls-39" x="43.88" y="38.9" width=".13" height="2.63"/>
              <rect class="cls-1" x="44.02" y="38.9" width=".13" height="2.63"/>
              <rect class="cls-52" x="44.15" y="38.9" width=".13" height="2.63"/>
              <rect class="cls-35" x="44.28" y="38.9" width=".13" height="2.63"/>
              <rect class="cls-35" x="44.41" y="38.9" width=".13" height="2.63"/>
              <rect class="cls-37" x="44.54" y="38.9" width=".13" height="2.63"/>
            </g>
            <g>
              <path class="cls-14" d="m40.89,39.23s0-.02,0-.01c-.01-.01,0-.02-.02-.01,0,0,0-.02,0-.01,0,0-.01-.02-.02-.03v.02s0-.03-.01-.03c0,.01.01.02.02.03h0s.01.02.01.02c0,0,0,0,0,0,.02.04.02,0,.03.03,0,0,0,0,0,0Z"/>
              <path class="cls-14" d="m40.89,39.26h.01s0,.02,0,.03c0,0,.01.01.01,0,0,0,0,0,0,0,0,0,.02.03.02.02-.01-.02-.01-.02-.02-.03,0-.02-.01-.03-.01-.04,0,0,0,0-.01,0,0,0,0,0,0,0h0s0,.01,0,.02l-.02-.02s.01.03.02.05c0-.02,0,0,0-.02Z"/>
              <path class="cls-14" d="m40.89,39.23s0,0,0,0h0Z"/>
              <path class="cls-14" d="m42.47,40.46s0,0,0,0l-.06-.03s.02.01,0,.01c0,0,.02,0,.02,0h0s.02.02.01.02h0s.05,0,.05,0c-.01,0-.01,0-.03,0Z"/>
              <path class="cls-14" d="m43.71,40.98s0,0,0,0c0,0,0,0,0,0Z"/>
              <path class="cls-14" d="m42.51,40.47h.01s-.01,0-.01,0Z"/>
              <polygon class="cls-14" points="42.39 40.52 42.39 40.52 42.4 40.52 42.4 40.52 42.39 40.52"/>
              <path class="cls-14" d="m42.8,40.56s0,0,0,0c0,0,0,0,0,0Z"/>
              <path class="cls-14" d="m42.21,40.48h.03s0,.01,0,.01c0,0,.01,0,.01,0h0s.01-.01.04,0c-.01-.01-.02,0-.03,0,0,0,0,0,0,0h-.03s0,0,0,0Z"/>
              <path class="cls-14" d="m43.31,40.88h0s0,0,0,0Z"/>
              <path class="cls-14" d="m43.31,40.88h0s0,0,0,0Z"/>
              <polygon class="cls-14" points="42.51 40.47 42.51 40.47 42.5 40.47 42.51 40.47"/>
              <path class="cls-14" d="m42.48,40.48h-.02s-.01,0-.01,0c0,0,.02,0,.03,0Z"/>
              <path class="cls-14" d="m42.76,40.54s-.02,0,0,.02c.01,0,.02,0,.03,0-.04-.01.01-.01-.03-.03,0,0,.03,0,.04.01.01.01-.01,0-.02,0,.02,0,.01,0,.02,0,.02.01.05.01.06.03.02,0,.02,0,.03,0,0,0-.02-.01-.03-.02,0,0,0,0,0,0h-.01s0,0-.01,0c0,0-.02,0-.01,0h0s-.03,0-.04-.01c0,0,0,0,0,0-.01,0-.03,0-.05,0h.01s-.05-.02-.07-.03c0,0,0,0,0,0-.01,0-.02-.01-.01-.02-.02,0-.05-.03-.07-.03h-.1s0,0,.01,0c0,.01,0,.01,0,.01.01,0,.01,0,.03,0,0,0-.01,0,0,.02.05.01.09,0,.14.01,0,0,.03.02.05.03,0,0-.02,0-.04,0,0,0,.02,0,.03.01h0Z"/>
              <path class="cls-14" d="m42.64,40.51s0,0,0,0c0,0,0,0,0,0Z"/>
              <polygon class="cls-14" points="42.72 40.53 42.72 40.53 42.72 40.54 42.72 40.53"/>
              <polygon class="cls-14" points="42.51 40.49 42.5 40.49 42.51 40.49 42.51 40.49"/>
              <polygon class="cls-14" points="42.51 40.47 42.51 40.47 42.51 40.47 42.51 40.47"/>
              <path class="cls-14" d="m42.92,40.67h0s0,0,0,0Z"/>
              <path class="cls-14" d="m42.81,40.57s0,0-.03,0h0s-.05-.01-.07-.02c0,0-.01,0,0-.01-.01,0-.03,0-.04,0,0,0-.02,0-.03-.01,0,0-.02,0,0,.01,0,0,0,0,0,0,.01.01.02,0,.04.01,0,0-.02,0,0,0,.02,0,.05.03.06.02.01,0,.01,0,.02.01.03,0,.07.04.08.02,0,0-.02,0-.03,0h0Z"/>
              <path class="cls-14" d="m42.54,40.5s0,0,0,0c0,0,0,0,0,0Z"/>
              <path class="cls-14" d="m42.36,40.36h.01s.05.02.09.03c0,0,0,0,0,0,.02,0,.06.03.08.03,0,0,.03.02.02.01,0,0,0,0,.01,0,0,0,0,0-.01,0,0,0,0,0,0,0,0,0,0,.01-.03,0,0-.01.02,0,.02,0,0,0,0,0-.01,0-.01,0,0,0,0,0,0,0-.02,0-.03,0-.02,0,0,0,0-.01h-.01s-.02,0-.02,0c-.04-.01,0,.02-.04,0,0,0,0-.02-.02-.03.01,0,.03,0,.05.02-.02-.02.03.01.02,0-.01,0-.03,0-.04-.01h0s-.03,0-.04-.01c0,0,0,0,0,0,0,0-.02,0-.02,0Zm.02,0h.01s0,0-.01,0Z"/>
              <path class="cls-14" d="m40.99,39.43s0,0,0,0c0,0,0,0,0,0Z"/>
              <path class="cls-14" d="m41.86,40.26h0s0,0,0,0Z"/>
              <path class="cls-14" d="m41.69,40.2h-.01s0,0,.01,0Z"/>
              <polygon class="cls-14" points="41.04 39.51 41.04 39.51 41.04 39.51 41.04 39.51"/>
              <path class="cls-14" d="m41.42,39.96s0,0,0,0c0,0,0,0,0,0Z"/>
              <polygon class="cls-14" points="41.69 40.2 41.69 40.2 41.69 40.2 41.69 40.2"/>
              <path class="cls-14" d="m41.91,40.33s0,0,0,0c0,0,0,0,0,0Z"/>
              <path class="cls-14" d="m41.92,40.29s0,0,0,0h0Z"/>
              <path class="cls-14" d="m42.15,40.43h.01s0,0-.01,0Z"/>
              <path class="cls-14" d="m41.94,40.31s0,0,0,0c0,0,0,0,0,0Z"/>
              <polygon class="cls-14" points="40.98 39.35 40.98 39.35 40.98 39.35 40.98 39.35"/>
              <path class="cls-14" d="m40.95,39.34s0,0,0,0c0,0,0,0,0,0Z"/>
              <path class="cls-14" d="m41.32,39.83s0,0,0,0c0,0,0,0,0,0Z"/>
              <path class="cls-14" d="m41.06,39.36s0,0,0,0c0,0,0,0,0,0Z"/>
              <path class="cls-14" d="m41.06,39.36s0,0,0,0c0,0,0,0,0,0Z"/>
              <path class="cls-14" d="m41.43,39.82s0,0,0,0c0,0,0,0,0,0Z"/>
              <path class="cls-14" d="m40.95,39.33s-.03-.03-.01,0c0,0-.01-.02-.02-.02,0,0,0,0,0,0,0,0,0,0,.01.01,0,0,0,0-.01-.01,0,.01-.01,0,0,0,.02.03.03.05.06.06-.01-.01-.02-.03-.03-.05h0s.01.03.02.04c0-.01-.01-.02-.02-.03,0-.02,0,0,.01,0,0,0,0,0,0,0Z"/>
              <polygon class="cls-14" points="41.01 39.32 41.01 39.32 41.01 39.32 41.01 39.32"/>
              <path class="cls-14" d="m42.21,40.31h0s0,0,0,0Z"/>
              <path class="cls-14" d="m40.99,39.35h0s0,0,0,0Z"/>
              <path class="cls-14" d="m42.14,40.27h0s0,0,0,0Z"/>
              <path class="cls-14" d="m42.06,40.39s0,0,0,0c0,0,0,0,0,0Z"/>
              <path class="cls-14" d="m42.14,40.27s0,0,0,0c0,0,0,0,0,0Z"/>
              <path class="cls-14" d="m41.78,40.11s0,0,0,0c0,0,0,0,0,0Z"/>
              <path class="cls-14" d="m41.84,40.16s0,0,0,0h0Z"/>
              <path class="cls-14" d="m41.31,39.87s0,0,0,0c0,0,0,0,0,0Z"/>
              <path class="cls-14" d="m42.14,40.27s0,0,0,0c0,0,0,0,0,0Z"/>
              <polygon class="cls-14" points="41.67 40.07 41.67 40.07 41.67 40.07 41.67 40.07"/>
              <path class="cls-14" d="m41.64,40.05s0,0,0,0c-.01,0-.03-.02-.04-.02,0,0,.02.02.02.02,0,0,.02.02.02.02-.01-.01,0,0,.01,0,0,0,0,0,0,0h.02s-.02,0-.02,0h0s0,0,0,0c-.03-.02,0,0-.03-.03Z"/>
              <path class="cls-14" d="m41.64,40.04s0,0,0,0c0,0,0,0,0,0Z"/>
              <path class="cls-14" d="m41.54,39.95s0,0,0,0c0,0,0,0,0,0Z"/>
              <path class="cls-14" d="m42.43,40.46s-.02-.01-.02,0c0,0,.01,0,.02,0h0Z"/>
              <polygon class="cls-14" points="41.24 39.7 41.25 39.7 41.25 39.7 41.24 39.7"/>
              <path class="cls-14" d="m41.61,40.04s0,0,0,0c0,0,0,0,0,0Z"/>
              <path class="cls-14" d="m41.25,39.69s0,0,0,0c0,0,0,0-.01,0,0,0,0,.01.01.02Z"/>
              <path class="cls-14" d="m41.24,39.67h0s0,0,0,0Z"/>
              <path class="cls-14" d="m42.44,40.47h0s0,0,0,0h.01s0,0,0,0c0,0,0,0,0,0h0s.04,0,.05,0c.01,0,.02,0,.03,0,0,0-.02,0-.01,0,.01,0,.02.02.04.02h-.01s.04,0,.04,0c0,0-.02,0-.02,0,.03,0,.04.03.06.02,0,0,0,.02.01.02,0-.01.01,0,0-.01,0,0,.02,0,.02,0h0s.04.01.05.01c.03.01.05.02.08.03,0,0,0,.02.01.02,0,0,.03,0,.04,0-.02-.01-.02,0-.03,0,0-.01,0,0,0-.02,0,0,.05.02.06.03h0s.01.03.05.03h.02s0,0,0,0c.02.01.01.02.04.02,0,0,0,0,0,0,.01,0,.03,0,.04.01,0,0,0,0,0,0,.03.01.06.02.08.02h.02s-.03,0-.02.01c.01,0,0,0,.02,0,0,0-.01,0-.02,0,.03.02.01,0,.03,0,0,0,.02,0,.02,0h.01s.02.02.04.02c0,0,0,0-.01,0,0,0,.02,0,.03,0,0,.01.06.02.04.03.04.01.1.03.13.04,0,0,.02.01.01.01.03.01.05,0,.08.02,0,0-.01,0-.01,0,.02,0,.04.02.07.03,0,0,0,0,0,0,0,0,.01,0,.02,0,0,0,0,0,0,0,.06.03.11.03.18.06-.02,0-.03,0-.03,0h.02s.02.01.03.01c0,0,0,0,0,0,.03.02.06,0,.1.03h-.06s.01,0,.01,0h-.03s.03,0,.03,0c0,0-.01,0-.01,0,.01,0,.01,0,.02,0-.03,0-.08-.02-.11-.03,0,0,0,0,0,0-.01,0-.02-.01-.03-.01-.01,0,0,0,.01,0,0,0,0,0-.01,0,0,0-.04-.02-.05-.03-.04-.01,0,.02-.04,0h0s-.06-.02-.08-.03h0s0,0,0,0c-.02-.01-.04,0-.05-.02-.03,0-.06-.01-.09-.02,0-.01.04,0,.05,0h-.02s.02,0,.03,0c-.02,0-.03,0-.05-.01,0,0,0,0,0,0h0s0,0,0,0h-.04s0,0,.01,0c0,0,0,0,.01,0,0,0,0,0,0,0-.02,0-.04-.02-.05-.02h0s-.04-.02-.05-.03h0s-.04-.02-.06-.03c-.02,0-.05,0-.06,0-.01,0-.05-.03-.07-.03,0,0,.02,0,.02,0-.01,0-.03,0-.03-.01.03.01,0,0,.02,0-.01,0-.03-.01-.04-.01.02,0-.01,0,.01.01-.02,0-.05,0-.07-.02,0,0,0,0,0,0h0s.02,0,0,0c-.02,0-.06-.03-.08-.02-.01-.01.03,0,.01,0,.02,0,.03.01.04,0-.01,0,0,0-.01-.01h-.02s0,0,0,0c-.03,0-.07-.02-.1-.04-.03,0-.05,0-.09-.02.01,0-.03-.02,0-.01-.01-.01-.03-.01-.03,0,.01,0,0,0,.02,0,0,0-.03,0-.03-.01,0,0,0,0,0,0-.02,0,0,0-.02,0,0,0-.03-.01-.03-.02h-.02s-.01,0-.01-.01c-.01,0-.02,0-.04,0,0,0-.01-.01-.01-.02-.03-.02-.05,0-.08-.03,0,0,0,0,0,0,0,0-.02,0-.02,0h0s0,0,0,0c0,0,0,0,0,0-.01,0-.02,0-.05,0,0,0,.02.01.03.01h0s.02,0,.02.01c-.02,0-.06-.02-.08-.02.01.01.04.03.07.04h-.01s.01,0,.01,0h-.01s.03,0,.04,0c-.01,0-.02-.02,0-.01.01.01.02,0,.03,0,0,0-.02,0,0,0,.02.02.03.02.05.03,0-.01.03.01.03,0h0s.02,0,.02,0c.02.02-.02,0,0,.02.03.01.03,0,.05.01,0,0-.03,0-.05,0h0s-.03,0-.04,0c.02,0,0,0-.02-.01,0,0,0,0,0,0,.01,0,.02,0,.03.02-.04-.02-.04,0-.08-.02.02,0,0,0,0-.01,0,0-.02,0-.03,0h0s-.02-.01-.05-.02c0,0,.02.01.01,0-.03,0-.04-.03-.06-.04,0,0,0,0-.02,0,0,0,0,0,.01,0,0,0-.02,0-.03,0,.02.01-.01,0-.02,0,0,0,0,0,.01,0,0,0-.01-.02-.02-.01,0,0,.03,0,.04,0h0s0,0,.02,0c0,0,0-.01,0-.01,0,0,0,0,0,0,0,0,.01,0,.01,0,.01,0,0,0-.01-.01,0,0,0,0-.01,0h-.05s-.02-.01-.04-.02h0s-.03-.01-.02-.01c0,0,0,0,0,0,0,0,0,0,0,0h0s-.03,0-.03-.01c.03,0,0,0,.02-.02h-.03s0,0,0,0c0,0-.02-.01-.03-.02h0s-.02-.01-.04-.02c0,0-.02,0-.03,0,.02.01,0,0,0,.01,0,0,0,0,0,0,0,0,0,0,0,0,.02,0,.04.02.06.01,0,0-.01,0-.02,0,.01,0,.03,0,.04.01h0s.02.01.02.01c0,0,0,0-.03,0,0,0,.02,0,.03.01h0s.02.01,0,0h-.03s0,0,0,0h-.02s0-.01,0-.01c-.04-.01,0-.02-.05-.03-.02,0-.03,0-.05-.02.02,0,0,0,.01,0-.02-.01-.02,0-.03,0,0,0,0-.01.01,0,0,0-.02,0-.02-.02-.03-.01-.04-.01-.05-.01-.01,0-.03,0-.06-.02h0s-.06-.03-.1-.05l-.02-.02s.03,0,.02,0c0,.02.02.02.04.03,0,0,0,0,0,0,0,0,.01.01.02.02,0,0-.01-.01,0,0h.01s.02,0,.04.02c0,0-.02,0-.03,0,.01,0-.02,0,0,0,.02,0,.02.01.05.02,0,0,0,0,0,0l.03.02s.03,0,.03,0c-.03-.02-.02-.01-.06-.03.01,0,.03,0,.04,0,0,0,0,0,0,0,0,0,0,0,0-.02-.02,0-.03-.01-.05-.02,0,0,0,.01.02.02h-.02s0,0,0,0l-.04-.03s.01,0,.02,0c0,0-.01,0-.02-.01,0,0,0,0-.01,0-.03-.02-.04-.03-.05-.04,0,0,0,0,0,0,0,0-.03,0-.04,0,0,0-.01-.01-.02-.02,0,0,0,.02,0,.03.02,0,.01,0,.03,0h.03s0,.01,0,.01c.01.01.03.01.03.02-.01,0-.02-.01-.03-.01h0s0,0-.03-.01c0,.01,0,0-.01,0,0,0,.04.02.03.03-.01,0-.03-.03-.05-.03h0s-.03-.02-.04-.02c0,0-.02-.01-.03-.02h0s-.01-.01-.01-.01c0,0,.02.01.03.02h0s.03,0,.04,0c-.02,0-.04-.03-.05-.02h0s0-.01,0-.01c0,0,0,0,.02,0,0,0,0,0,0,0,0,0,.02,0,.03.01h-.01s.04.02.05.02c-.03-.02-.06-.04-.08-.06-.02,0-.03,0-.04.01-.02-.01-.04-.03-.06-.04h0s-.01-.01-.02-.01c0,0,0,0,0,0l-.03-.02s.02.01.03.02c0,0,0,0,0,0,.01.01.04.02.04.03,0,0-.02,0,0,.01.01.01.02,0,.02,0,0,0-.02-.02,0-.02-.01,0-.02,0-.03-.02.01,0,.03.01.03.02.02,0,.03,0,.02-.01,0,0-.04-.02-.02,0-.01,0-.04-.02-.05-.03h0s-.01,0-.02-.01c0,0,0,0,.01,0h-.03s0-.02-.01-.03c0,0-.02,0-.01,0,0,.01,0,0,.02.01h-.02s0,0,0,0h-.01s.02,0,0-.02h0s-.03-.02-.04-.03c-.01-.01-.02-.03-.03-.03,0,0,.02,0,.01-.01,0,0,.02.02.03.03,0,0-.02,0-.03-.02,0,.02.04.02.03.03.03.03.03,0,.05.04,0,0,0,0,.01,0,0-.01-.04-.03-.05-.05,0,0,0,0,0,0-.01-.01-.02-.02-.03-.02h0s0-.01-.01-.02c0,0-.01-.01-.02,0v-.02s-.02,0-.02,0c0,0,0-.01-.02-.02h0s.02.03.02.03c-.01,0,0,0-.02,0,.02,0,0-.01,0-.02h-.01s0,0,0,0c0,0-.01,0-.02-.01,0,.01.01.02.03.03-.01,0-.03-.02-.04-.02-.01,0-.01-.02-.02-.03.02.01,0-.02.04.02,0,0,0,0,0,0,0,.01.02.02.03.02,0,0,0,0,0-.01,0,0-.02,0-.03-.02h0s-.01-.02-.02-.02h0s-.02-.02-.03-.03c-.01,0-.04-.04-.04-.02,0-.02-.02-.02-.03-.03,0,0,0,.01.01.02-.02-.01-.01-.01-.04-.02,0,0,0,0,0,0-.02-.03-.05-.06-.07-.07-.01-.02,0-.03-.03-.05,0,0,0,.01-.02,0,0,0,.02.01,0,0-.02,0-.02-.03-.04-.05,0-.01-.02-.03-.01-.03,0,.02.03.04.03.04,0,0,0,.01,0,0,.01.03.01.01.03.03,0,0,0-.01,0-.02,0,0,.03.04.03.01-.02-.02-.04-.02-.04-.04,0,0,.02.02.03.02v-.02s-.02,0-.02,0h0s-.03-.02-.05-.04c0,.02-.01,0,0,.02-.01-.02-.02-.03-.01-.03.03.03,0,0,.04.02,0,0,.01,0,0-.02-.02-.02,0,0-.02,0,0,0,0,0,0,0,0,0,0-.01-.02-.02h0s-.01,0-.02-.02c0,0,0,0-.02,0,0,.01,0,.02.02.05,0,0,0,0,.02,0,0,0,0,0-.01-.01,0,0,0,0,0,0v.02s0,0-.02,0c0-.02-.01-.01-.02-.02,0,0-.01-.04-.02-.06,0,0,0,0,0,0,.01.01,0-.01,0-.01h0s0,0,0,0c0-.01-.02,0-.03-.02,0,0,.02,0,.01,0,0,0,0-.02-.01-.04,0,0,0,0,0-.01,0,0,0,0,0,0h0s.01,0,.02.02h0s.01.02.02.02c0-.01,0-.01-.02-.03,0,0,.01,0,.01,0h0s.02.02.03.04c0,0,0,0,0,0,.02.01.02.03.04.04h0s.03.02.05.04h0s0,0,0,0h0s.02.02.03.02c0,0,0,0,0-.01,0,0-.02-.02-.02-.01,0-.01-.02-.02-.02-.03,0,.01-.01,0-.02,0,0,0-.01-.02,0-.02,0,0,0,0,0,.01.01,0-.01-.03,0-.01-.02-.02-.03-.04-.05-.06h0s-.02-.02-.02-.02c0,0,0,.01.02.02,0,0-.01-.02-.01-.02l-.03-.02h0s-.02-.02-.03-.04c.01,0,.02.03.03.04.01.01,0-.01.01,0,0,0,0-.01,0-.02h0s.03.03.04.04c0,0,0,0,0,0,0,.01.01.03.02.04,0,0,0,0,0-.01,0,0,0,0,.01.01,0-.01,0,0,0-.01,0,0,.01.01.02.02,0,0,0,0,0,0,0,0,0,.02.02.03-.01-.02.01,0,.02,0h0s.01,0,.01.01c0,0-.01-.01-.01,0,0,0,0,0,.01.01h0s.02.02.02.02c0,0,.02,0,.02,0,0,0,0,.01.01.02h0s.02.03.03.03c0,0-.06-.04-.02.01.02.02.02,0,.03.01,0,0,0,0,0,0,0,0,.01,0,.02.01,0,0,0-.01-.01-.01,0,0,.01.02.02.02-.01,0,.01.02,0,.01,0,.02.03.03.04.04,0,.02.02.02.03.04,0,0,0,0-.01-.01-.01,0,.01.02,0,0,0,0,0,0,0,0,0,0-.01,0-.01,0v.02s0,0,0,0v.03s.01,0,.01,0c0,.01.02.03.03.04.01.01.02.02.03.04.02,0,.05.05.08.06,0,0-.02,0-.02,0,0,0-.02,0-.02-.02,0,0,0-.02,0-.01-.02-.02,0,0-.01,0,.03.03.05.03.07.05h0s.02.01.02.01c0-.01,0-.02,0,0h0s.02.02.04.03c0,0,0,0,.01,0,.01.01,0,.02,0,.03.02.02.04.02.05.03,0,0,.03.03.01.03.02.01.03,0,.06.02h-.01s.08.04.09.06c-.01,0,0,.01,0,.02.01.01.02.02.02.03,0,0,.01,0,.02,0,0,0,0,0,.01,0-.01-.01.02,0,0-.02.02,0,.04,0,.06.02h0s-.02,0-.02,0c0,0-.01,0-.02,0,.04.03-.01,0,.03.03,0,0,0,0,.01,0,0,0,0,0,0,0h.01s-.03,0-.02,0c-.02,0-.05-.02-.05-.01.02.02.03,0,.06.02h0s.02,0,.02,0c0,0,0,0,0,0,.02,0,.03,0,.05,0-.04-.02-.03-.02-.08-.04,0,0,.04.02.04,0h0s.03.01.05.02h-.01s.03.03.06.03c0,0-.01,0-.02,0,.01,0,.03.01.04.02h.03s.02.01,0,.02c.02.01.03,0,.04.01.02.02-.02,0-.02,0,.03.02.06.03.07.03,0,0,0,0,0,0,0,0,.01,0,.02,0h0s0,0,0,0c0,0,.02,0,.03.01-.02,0-.04-.02-.05-.02.04.01.03.03.08.04,0,0,0,0,0,0,.02,0,0,0,.02,0-.02,0-.02-.01-.03-.02h0s0,0,.01,0h0s0,.01.02.02c0-.01,0,0,0-.02.02,0,.02.02.04.02,0,0-.02,0,0,0,.01,0,.01,0,.02,0-.01,0-.01,0-.02,0-.02,0,0,0-.03-.01h.02s-.02.01-.02.02c.03.02.03,0,.05.01.01,0-.02,0,0,0,.02,0,0,0,.03,0h0s.01,0,.02,0c0,0,0-.02.03,0,0,0,0,0,0,0l-.05.03s.07.03.11.05c0,.01-.03,0-.03,0h-.02s.04,0,.03,0c-.03-.01-.05-.02-.08-.03,0,.01.04.02.06.03,0,0-.02,0-.02,0,.02,0,.04.02.06.03h0s-.02-.01-.02-.01c.02,0,.04.01.04,0h0s0,0,0,0h.01Zm1.23.52s0,0,0,0c0,0,0,0,0,0Zm-1.6-.65s.05.03.07.04c-.04-.03-.06-.06,0-.02h0s-.02-.01-.04-.02c-.01,0-.06,0-.06,0,0,0,.01,0,.02,0h0Zm0-.04s-.01,0-.01,0c0,0,.01,0,.02,0,0,0,0,0,0,0Zm-.02,0s0,0,0,0h0Zm.27.13s0,0,0,0c0,0,0,0,0,0,0,0,0,0,0,0Zm-.03-.02h0s0,0,0,0c0,0,0,0,0,0Zm-.08-.06s-.03,0-.03,0c0,0,0,0,0,0,0,0,.01,0,.02,0,0,0,0,0,0,0,0,0,0,0,0-.01.01.02.02,0,.03,0,0,0-.02-.01-.02-.01Zm-1.06-.79s0,0,0,0c0,0,0,0,.01,0,.01.02.01.04.03.05,0,0,0,.02,0,.02,0,0,0,0,0-.01-.05-.03,0-.03-.04-.06Zm.15.2s0,0,0,0c.04.03.08.05.09.07,0,0-.01-.03-.02-.04h.01s0,.01,0,.01h.02s-.01,0-.01-.02c0,0-.03-.02-.04-.02v.02s-.01-.03-.02-.04c0,0,0,.02.02.02,0,0-.02-.01-.01,0-.02-.01-.03-.03-.04-.05h0s-.01,0-.02-.03c.02.02,0,0,.02,0,0,0,0,0,0-.02-.02,0,0-.02-.02-.02,0,0,.01,0,0-.01-.02-.01-.02,0-.03,0,.01.02.02.01.03.02l-.03-.02s0,0,0,.01c0,0,0,0-.01,0,0,0,0,0,0,0,.01.01.02.03.02.03h0s.01.01.02.02c.01.01.03.02.02.03h0s.02.01.03.03Zm.5.42s0-.04-.06-.06h0s-.05-.02-.07-.05c.02,0,.02,0,.04,0h-.02s0-.02-.02-.03h.01s.02.02.02.02c0,0,.01.03.03.03,0,0-.03-.02-.01-.02-.01,0-.01-.01-.02-.02.01,0,0,0,.02,0h-.02s.03,0,.02-.01c0,0-.03-.02-.03-.02h0s-.01,0-.03-.02c0,0,0,0,0,.01,0,0,0,0,.02,0,0,0-.01-.01-.01,0,0,0,.03.02.02.02h-.01s-.01-.01-.02-.01c-.01,0-.01-.02-.03-.02,0,0,0,.01-.02,0,0-.02-.04-.04-.05-.05h-.01s.02.01.01,0h-.02s0-.01,0-.01c0,0-.01,0-.02-.01,0,0,.02.01.02,0,0,0,0-.01-.01-.02,0,0,0,0,0,0-.01-.02-.02,0-.03,0-.02,0,.01.02,0,.02-.02-.01-.03-.02-.05-.04,0,0,.01,0,.01,0,0-.01,0,0-.01-.02,0,0-.02-.01-.04-.02,0,0,0,0,0,0,0,0-.01-.02-.02-.02,0,0-.01,0-.01,0,0,0,0,0-.01,0h0s.04.04.05.05h0s.05.03.05.05c0,0,0,0,0,0h.02s0,0,0,0l.03.02h0s.03,0,.04.01c0,0,0,0,0,0,0,0,0,0,.01,0h0s0,0,0,0c0,0,0,.01.01.02l-.02-.02s0,0,0,.02c0,0,0,0,0,0,0,0,.02.01.01,0,.02.02.05.05.09.07-.03-.01.02.02-.01,0,.01.02.02,0,.04.02,0,0-.01,0-.02,0,0,0,.02.01.02.02,0,0,.02,0,.02.01.02,0,.03.01.05.02h0s.01.01.02.02Zm.07.03s.01,0,.02,0h0s.02,0,.02,0c-.01,0-.02-.02,0-.01,0,0,0,0,0,0,0,0,.03.03.03.01-.03,0,0-.01-.02-.02.01,0,.02,0,.03,0-.01,0,0,.01,0,.02,0,0,.02.01.03.01,0,0,0,0,0-.01,0,0,.02,0,.03.01,0,0-.01,0-.01,0,0,0,.01.01.02.02,0,0,0,0,.01,0,0,0,0,0,0,0h.01s0,0,0,0c0,0,0,0,.01,0h0s.02,0,.02,0c-.02-.01-.03-.02-.06-.03h0s-.01,0-.04-.02c-.01,0-.04-.02-.05-.01,0,0-.01-.02-.02-.02-.01,0-.05-.01-.04,0,0,0,.02,0,.03.01h-.02s0,0,0,0c0,0,0,0,0,0Zm.35.23h0s0,0,0,0h0Z"/>
              <path class="cls-14" d="m40.97,39.34s-.01-.01-.01-.01c0,0,.01.02.01.01Z"/>
              <path class="cls-14" d="m40.97,39.33s0,0,0,0c0,0,0,0,0,.01h0Z"/>
              <path class="cls-14" d="m40.99,39.3s-.01,0-.02-.02c0-.01.01.02.03.02-.01-.02-.02-.02-.04-.04,0,.01.02.05.03.04Z"/>
              <rect class="cls-14" x="41.01" y="39.29" width="0" height=".01" transform="translate(-15.78 38.17) rotate(-42.65)"/>
              <path class="cls-14" d="m41.08,39.6s0,0,0,.01c0,0,0,0,0-.01Z"/>
              <path class="cls-14" d="m43.35,40.94l.1.03s-.05-.02-.1-.03Z"/>
              <path class="cls-14" d="m41.33,39.85s-.04-.02-.06-.04c.02.03.04.03.06.06h0Z"/>
              <path class="cls-14" d="m41.3,39.86s.02,0,.02,0c-.01-.01-.01,0-.02-.01h0Z"/>
              <polygon class="cls-14" points="41.31 39.68 41.32 39.69 41.31 39.68 41.31 39.68"/>
              <polygon class="cls-14" points="41.4 39.95 41.39 39.95 41.4 39.96 41.4 39.95"/>
              <path class="cls-14" d="m41.39,39.94h0s0,0,0,0Z"/>
              <polygon class="cls-14" points="41.33 39.68 41.32 39.67 41.31 39.67 41.33 39.68"/>
              <path class="cls-14" d="m41.37,39.79h0s.01,0,0,0Z"/>
              <rect class="cls-14" x="41.47" y="40" width="0" height=".01" transform="translate(-13.38 57.66) rotate(-61.82)"/>
              <path class="cls-14" d="m41.45,39.83s.02.01,0,0c-.01,0,0,0,0,0Z"/>
              <path class="cls-14" d="m41.54,39.97s0,0,0,0c0,0,0,0,0,0Z"/>
              <path class="cls-14" d="m41.54,39.97s0,0-.01-.01c0,0,0,0,.01.01Z"/>
              <path class="cls-14" d="m41.59,40.01h0s0,0,0,0c0,0,0,0,0,0,0,0,0,0,0,0,0,0,0,0,0,0,0,0,.01,0,.01,0Z"/>
              <path class="cls-14" d="m41.74,40.24s-.02-.02-.02-.02c-.02-.01-.02,0-.03,0,.02.01.02.02.04.03Z"/>
              <path class="cls-14" d="m41.7,40.21s0,0,0,0c0,0,0,0,0,0Z"/>
              <polygon class="cls-14" points="41.56 39.92 41.58 39.93 41.57 39.92 41.56 39.92"/>
              <path class="cls-14" d="m41.77,40.26s0,0-.01,0c0,0,.01.01.01,0Z"/>
              <path class="cls-14" d="m41.75,40.14s-.01,0-.02-.01c0,0,0,.01.02.01Z"/>
              <path class="cls-14" d="m41.83,40.27s0,0,0,0c0,0-.02,0,0,0Z"/>
              <polygon class="cls-14" points="41.78 40.16 41.78 40.16 41.76 40.15 41.78 40.16"/>
              <path class="cls-14" d="m41.78,40.08s.01.02-.01.01c.02.02,0,0,.02,0-.01,0-.01-.02-.01-.02Z"/>
              <path class="cls-14" d="m41.79,40.1s0,0,0,0c0,0,0,0,0,0Z"/>
              <path class="cls-14" d="m41.95,40.23s0,0,0,0c0,0,0,0,0,0Z"/>
              <path class="cls-14" d="m41.85,40.14h-.02s.05.02.05.01c0,0-.02-.01-.03-.01h0Z"/>
              <path class="cls-14" d="m42.02,40.39h-.01s.01,0,.01,0c0,0,0,0,0,0Z"/>
              <path class="cls-14" d="m42.02,40.39h0s0,0,0,0Z"/>
              <path class="cls-14" d="m41.91,40.22s-.01,0-.02,0c0,0,.02.01.02,0Z"/>
              <polygon class="cls-14" points="42.08 40.41 42.07 40.4 42.09 40.41 42.08 40.41"/>
              <rect class="cls-14" x="42.15" y="40.45" width=".01" height="0" transform="translate(-15.87 33.64) rotate(-37.13)"/>
              <path class="cls-14" d="m42.12,40.26s-.02,0-.02,0h.02s0,0-.02,0h.01Z"/>
              <path class="cls-14" d="m42.67,40.67s-.03,0-.03-.01c0,0,.02,0,0,0h-.02s.02,0,.04,0c-.02-.01-.03,0-.06-.02,0,0,.01,0,.01.01,0,0-.02,0-.04-.01,0,0,0,0,0,0,0,0,0,0,0,0h0s0,0,0,0c0,0,0,0,0,0,.01,0,.02.01.03.02,0-.01.03.01.04.01h.01s0,0,0,0c0,0,0,0,0,0,0,0,.03,0,.03,0l.05.02s0,0,0,0c0,0,0,0,0,0l.2.08s-.02-.01-.03-.02c.02,0-.02,0,0-.01,0,0,.02,0,.02,0,0,0,0,0,0-.01-.02-.02-.03,0-.06-.01,0,0,.01,0,0-.01h0s-.02-.02-.04-.01h0s-.04-.02-.05-.02h0s-.02,0-.06-.02h.02s-.02,0-.03,0c0,0,0,0,.01,0h-.05s0,0,0,0Z"/>
              <path class="cls-14" d="m42.61,40.63s0,0,0,0c0,0,0,0,0,0Z"/>
              <path class="cls-14" d="m42.95,40.8h-.01s0,0,.01,0Z"/>
              <path class="cls-14" d="m42.53,40.61s0,0-.01,0h.03s0,0,0,0h-.03Z"/>
              <path class="cls-14" d="m42.56,40.64s0,0,0,0h-.02s0,0,0,0Z"/>
              <polygon class="cls-14" points="42.61 40.51 42.61 40.51 42.62 40.52 42.61 40.51"/>
              <path class="cls-14" d="m42.69,40.56s-.02,0-.02,0c.01,0,0,0,.02,0Z"/>
              <polygon class="cls-14" points="42.69 40.51 42.7 40.52 42.7 40.52 42.69 40.51"/>
              <path class="cls-14" d="m43.07,40.82s0,0,0,0c0,0,0,0,0,0Z"/>
              <path class="cls-14" d="m42.94,40.77s-.02,0-.02,0h.02s0,0,0,0h.02s0,0,0,0c.03.01,0,0,.03.02h.03s0,.01,0,.01c0,0,0,0,0,0l.11.04s0-.01,0-.01c-.02,0-.06-.03-.06-.02,0,0,0,0,0,0h-.02s.01,0,.01,0c-.02,0-.06-.02-.07-.03.03,0,.02,0,.05.01,0,0,0,0,0,0-.04-.01-.08-.03-.12-.04Z"/>
              <path class="cls-14" d="m43.35,40.93h0s0,0,0,0Z"/>
              <path class="cls-14" d="m43.34,40.93h-.02s.03.01.03.01h0s-.02,0-.02,0h0Z"/>
              <path class="cls-14" d="m43.29,40.92s.02,0,.01,0c.02,0,0,.01.02,0,0,0-.02,0-.02-.01h0Z"/>
              <polygon class="cls-14" points="43.17 40.87 43.18 40.87 43.17 40.87 43.17 40.87"/>
              <polygon class="cls-14" points="43.18 40.87 43.19 40.88 43.19 40.87 43.18 40.87"/>
              <path class="cls-14" d="m43.22,40.89s0,0,.02,0h-.02Z"/>
              <path class="cls-14" d="m43.21,40.88h0s.01,0,.01,0c0,0,0,0-.01,0Z"/>
              <path class="cls-14" d="m43.19,40.88s0,.01.02.02h0s-.02-.02-.02-.02Z"/>
              <rect class="cls-14" x="42.79" y="40.56" width="0" height=".01" transform="translate(-5.12 74.93) rotate(-79.12)"/>
              <path class="cls-14" d="m42.85,40.6s0,0,0,0c0,0,0,0,0,0Z"/>
              <path class="cls-14" d="m42.92,40.59s-.02,0,0,.01c0,0-.01,0-.03,0,0,0,.01,0,0,0-.01,0-.01,0-.01,0-.02,0-.02,0-.03,0,.02,0,.05.03.08.03.02,0,.01-.02.02-.03,0,0-.03-.02-.04-.01Z"/>
              <path class="cls-14" d="m42.9,40.57s0,0-.01,0c0,0,0,0,.01,0Z"/>
              <path class="cls-14" d="m43.02,40.71s.01,0,.01,0h-.02s0,0,0,0Z"/>
              <path class="cls-14" d="m43.01,40.7h0s0,0,0,0Z"/>
              <path class="cls-14" d="m43.02,40.72h0s0,0,0,0Z"/>
              <path class="cls-14" d="m43.26,40.91s0,0,.01,0c0,0,0,0-.01,0Z"/>
              <path class="cls-14" d="m43.58,41.02h0s0,0,0,0Z"/>
              <path class="cls-14" d="m43.73,40.99s0,0,0,0c0,0,0,0,0,0Z"/>
              <path class="cls-14" d="m43.73,40.99s.02,0,.03,0h0s.01,0,.01,0c0,0-.03-.01-.04-.01Z"/>
            </g>
            <g class="cls-54">
              <rect class="cls-58" x="37.94" y="38.76" width=".02" height="3"/>
              <rect class="cls-58" x="37.95" y="38.76" width=".14" height="3"/>
              <rect class="cls-24" x="38.09" y="38.76" width=".14" height="3"/>
              <rect class="cls-38" x="38.23" y="38.76" width=".14" height="3"/>
              <rect class="cls-38" x="38.37" y="38.76" width=".14" height="3"/>
              <rect class="cls-50" x="38.51" y="38.76" width=".14" height="3"/>
              <rect class="cls-51" x="38.65" y="38.76" width=".14" height="3"/>
              <rect class="cls-40" x="38.79" y="38.76" width=".14" height="3"/>
              <rect class="cls-40" x="38.93" y="38.76" width=".14" height="3"/>
              <rect class="cls-22" x="39.07" y="38.76" width=".14" height="3"/>
              <rect class="cls-53" x="39.21" y="38.76" width=".14" height="3"/>
              <rect class="cls-4" x="39.35" y="38.76" width=".14" height="3"/>
              <rect class="cls-4" x="39.49" y="38.76" width=".14" height="3"/>
              <rect class="cls-2" x="39.63" y="38.76" width=".14" height="3"/>
              <rect class="cls-34" x="39.77" y="38.76" width=".14" height="3"/>
              <rect class="cls-31" x="39.91" y="38.76" width=".14" height="3"/>
              <rect class="cls-33" x="40.05" y="38.76" width=".14" height="3"/>
              <rect class="cls-55" x="40.19" y="38.76" width=".14" height="3"/>
              <rect class="cls-20" x="40.33" y="38.76" width=".14" height="3"/>
              <rect class="cls-59" x="40.47" y="38.76" width=".14" height="3"/>
              <rect class="cls-59" x="40.61" y="38.76" width=".14" height="3"/>
              <rect class="cls-59" x="40.75" y="38.76" width=".14" height="3"/>
              <rect class="cls-56" x="40.89" y="38.76" width=".14" height="3"/>
              <rect class="cls-26" x="41.03" y="38.76" width=".14" height="3"/>
              <rect class="cls-19" x="41.16" y="38.76" width=".14" height="3"/>
              <rect class="cls-27" x="41.3" y="38.76" width=".14" height="3"/>
              <rect class="cls-43" x="41.44" y="38.76" width=".14" height="3"/>
              <rect class="cls-16" x="41.58" y="38.76" width=".14" height="3"/>
              <rect class="cls-32" x="41.72" y="38.76" width=".14" height="3"/>
              <rect class="cls-32" x="41.86" y="38.76" width=".14" height="3"/>
              <rect class="cls-23" x="42" y="38.76" width=".14" height="3"/>
              <rect class="cls-47" x="42.14" y="38.76" width=".14" height="3"/>
              <rect class="cls-29" x="42.28" y="38.76" width=".14" height="3"/>
              <rect class="cls-39" x="42.42" y="38.76" width=".14" height="3"/>
              <rect class="cls-1" x="42.56" y="38.76" width=".14" height="3"/>
              <rect class="cls-52" x="42.7" y="38.76" width=".14" height="3"/>
              <rect class="cls-35" x="42.84" y="38.76" width=".14" height="3"/>
              <rect class="cls-35" x="42.98" y="38.76" width=".14" height="3"/>
              <rect class="cls-37" x="43.12" y="38.76" width=".14" height="3"/>
            </g>
            <g>
              <path class="cls-14" d="m39.44,38.98s.01.06-.01.02c0,.03.05.08.07.11-.02.01-.05,0-.03.06.04.08.04-.01.09.05l-.02-.05c.06.03.11.15.17.22.02.07.01.15.08.22,0,0-.02-.02-.03,0,0,.02.02.04.04.05.05.02.02-.03.04-.03.03.03.07.05.09.1v.08c.08,0,.08.09.16.15-.01.03.09.08.08.11.03.03-.05.06-.04.1.03.06-.04-.02,0,.04-.06-.04.04-.07-.03-.13h0s-.06-.08-.1-.08c-.06-.08.03-.03.02-.08-.04,0-.12-.09-.15-.07.02.02.03.04.05.06,0,0,0,0-.01,0,0-.06-.21-.09-.1-.12.01,0,.03.03.04.03.02-.02-.03-.05-.05-.09-.05-.02-.11-.03-.14-.09,0-.02.01-.02,0-.04-.1-.09-.05-.12-.13-.23-.02-.09-.1-.17-.11-.26-.01.02-.04-.04-.04-.06,0-.02,0-.07-.03-.09.01.02.01,0,.03.01-.05-.06-.02-.09,0-.1.04.04.07.03.1.1Z"/>
              <path class="cls-14" d="m40.34,40.23s0,.04.02.06c.02.02.03.03-.01.03.03.04.06.04.09.04-.04-.04.01,0,0-.03,0,0,.02,0,.03.01h.03s.03.02.03.02h.03s.03.02.03.02h.03s.04.03.06.03c.08.03.15.06.23.1.1.08.21.09.33.11.06.04,0,.05-.02.07l.08.04h-.09s.03.02.04.04h.02c-.06.07-.16-.07-.25-.08.1.04,0-.03.04-.03l-.03-.02s.09.01.16.04c-.18-.09-.38-.15-.55-.17,0,0,.02,0,0-.02-.06-.03-.1,0-.14,0h.03s-.04-.03-.07-.03c-.03,0-.06-.02-.08-.03-.02-.02-.03-.04-.05-.07,0-.01-.02-.02-.03-.03-.01-.01-.03-.02-.05-.03h.01s-.03-.05-.05-.06c.01,0,.01,0,.01,0,0,0,0,0,.01.01.02-.02.02-.07,0-.11,0,0,.01.02.02.02-.01-.03-.07-.11-.02-.1.03.03.03.06.04.08,0,.02.01.05.04.07Z"/>
              <path class="cls-14" d="m39.99,40.05c.03.06-.03,0-.03.02-.01-.01-.03-.03-.04-.04.01-.01.05.03.07.02Z"/>
              <path class="cls-14" d="m41.58,40.79s.04.03.06.04c.05,0,.07,0,.12.03-.07.02.03.08.06.12-.03,0-.1,0-.14-.05.01-.01-.03-.04-.05-.05-.04,0,0,.08-.14.03-.02-.02-.09-.04-.07-.06-.01-.02-.04,0-.05-.02h0s.09,0,.09,0c0,0,0,.01.01.02,0-.02.11,0,.07-.05l-.12-.05s.02-.02.07,0c.05.04.05.04.1.04Z"/>
              <polygon class="cls-14" points="41.27 40.72 41.27 40.71 41.37 40.75 41.27 40.72"/>
              <path class="cls-14" d="m41.96,40.95s-.04-.02-.06-.02v-.03s.06.05.06.05Z"/>
              <path class="cls-14" d="m40.84,40.66s-.1-.03-.13-.01c.02,0,.01,0,.02,0l-.03-.02c.05,0,.09.03.14.04Z"/>
              <path class="cls-14" d="m42.16,41.05c.07.03.1,0,.17.05.01.02-.03,0,0,.02.02.02.03,0,.05,0h0s.06.06.02.08c-.09-.06-.17,0-.23-.07v-.04s-.05-.01-.05-.01c0,0,0-.01-.01-.02-.04,0,.02.03,0,.04l-.1-.02s.01,0,.01-.01c-.03-.04-.08,0-.1-.04h.06c-.06-.03-.11-.06-.15-.1.13.07.24.02.34.11Z"/>
            </g>
            <g class="cls-21">
              <rect class="cls-58" x="33.77" y="38.63" width=".17" height="3.33"/>
              <rect class="cls-24" x="33.94" y="38.63" width=".17" height="3.33"/>
              <rect class="cls-38" x="34.11" y="38.63" width=".17" height="3.33"/>
              <rect class="cls-38" x="34.28" y="38.63" width=".17" height="3.33"/>
              <rect class="cls-50" x="34.45" y="38.63" width=".17" height="3.33"/>
              <rect class="cls-51" x="34.62" y="38.63" width=".17" height="3.33"/>
              <rect class="cls-40" x="34.79" y="38.63" width=".17" height="3.33"/>
              <rect class="cls-40" x="34.96" y="38.63" width=".17" height="3.33"/>
              <rect class="cls-22" x="35.13" y="38.63" width=".17" height="3.33"/>
              <rect class="cls-53" x="35.29" y="38.63" width=".17" height="3.33"/>
              <rect class="cls-4" x="35.46" y="38.63" width=".17" height="3.33"/>
              <rect class="cls-4" x="35.63" y="38.63" width=".17" height="3.33"/>
              <rect class="cls-2" x="35.8" y="38.63" width=".17" height="3.33"/>
              <rect class="cls-34" x="35.97" y="38.63" width=".17" height="3.33"/>
              <rect class="cls-31" x="36.14" y="38.63" width=".17" height="3.33"/>
              <rect class="cls-33" x="36.31" y="38.63" width=".17" height="3.33"/>
              <rect class="cls-55" x="36.48" y="38.63" width=".17" height="3.33"/>
              <rect class="cls-20" x="36.65" y="38.63" width=".17" height="3.33"/>
              <rect class="cls-59" x="36.82" y="38.63" width=".17" height="3.33"/>
              <rect class="cls-59" x="36.98" y="38.63" width=".17" height="3.33"/>
              <rect class="cls-59" x="37.15" y="38.63" width=".17" height="3.33"/>
              <rect class="cls-56" x="37.32" y="38.63" width=".17" height="3.33"/>
              <rect class="cls-26" x="37.49" y="38.63" width=".17" height="3.33"/>
              <rect class="cls-19" x="37.66" y="38.63" width=".17" height="3.33"/>
              <rect class="cls-27" x="37.83" y="38.63" width=".17" height="3.33"/>
              <rect class="cls-43" x="38" y="38.63" width=".17" height="3.33"/>
              <rect class="cls-16" x="38.17" y="38.63" width=".17" height="3.33"/>
              <rect class="cls-32" x="38.34" y="38.63" width=".17" height="3.33"/>
              <rect class="cls-32" x="38.51" y="38.63" width=".17" height="3.33"/>
              <rect class="cls-23" x="38.67" y="38.63" width=".17" height="3.33"/>
              <rect class="cls-47" x="38.84" y="38.63" width=".17" height="3.33"/>
              <rect class="cls-29" x="39.01" y="38.63" width=".17" height="3.33"/>
              <rect class="cls-39" x="39.18" y="38.63" width=".17" height="3.33"/>
              <rect class="cls-1" x="39.35" y="38.63" width=".17" height="3.33"/>
              <rect class="cls-52" x="39.52" y="38.63" width=".17" height="3.33"/>
              <rect class="cls-35" x="39.69" y="38.63" width=".17" height="3.33"/>
              <rect class="cls-35" x="39.86" y="38.63" width=".17" height="3.33"/>
              <rect class="cls-37" x="40.03" y="38.63" width=".17" height="3.33"/>
            </g>
            <path class="cls-8" d="m37.6,38.84s-.08.07-.03.24.18.08.2.28-.07.12-.07.12l-.11-.15s.02.17.18.46.22.17.25.31.08.18.18.32.16.26.2.31.09.05.08.01-.12-.15-.11-.17.1.08.16.11.08.01.1.09.02.13.06.18.15.12.19.16.1.08.1.03-.12-.17-.12-.17c0,0-.19-.09-.18-.16s.13,0,.13,0l.35.26.29.25s.13.1.2.1.06-.05.06-.05c0,0-1.06-.76-1.08-.81s-.05-.14-.09-.18-.23-.13-.23-.13c0,0,.12.16.11.2s-.11-.03-.12-.05-.22-.26-.2-.29.06-.01.06-.01c0,0-.1-.24-.11-.25l-.26-.52s-.09-.1-.12-.17,0-.19-.02-.23,0-.11-.08-.1Z"/>
          </g>
          <path class="cls-42" d="m40,30.33l-7.84,13.58h15.68l-7.84-13.58Zm0,.74l7.18,12.43h-14.35l7.18-12.43Z"/>
          <path class="cls-6" d="m41.88,43.48s.87-.19,1.48-.15.63.13.63.13c0,0-.66-.14-1.15-.08s-.87.12-.87.12l-.09-.02Z"/>
          <path class="cls-6" d="m45.29,43.22s.25-.05.69-.05.71.05.77.05-.38,0-.79,0-.67,0-.67,0Z"/>
        </g>
      </g>
    </g>
  </g>
</svg>