<?xml version="1.0" encoding="utf-8"?>
<!-- Generator: Adobe Illustrator 27.1.1, SVG Export Plug-In . SVG Version: 6.00 Build 0)  -->
<svg version="1.1" id="Capa_1" xmlns="http://www.w3.org/2000/svg" xmlns:xlink="http://www.w3.org/1999/xlink" x="0px" y="0px"
	 viewBox="0 0 34.5 41.2" style="enable-background:new 0 0 34.5 41.2;" xml:space="preserve">
<style type="text/css">
	.st0{fill:#FFFFFF;}
</style>
<g>
	<path class="st0" d="M8.9,32.9C8.5,32.4,8,32,7.6,31.6c-0.2-0.1-0.4-0.1-0.6,0c-0.2,0.1-0.3,0.3-0.2,0.5c0,0.4,0.1,0.8,0.1,1.1
		c0.1,0.6,0.2,1.2,0.4,1.8c0.3,0.7,0.9,1.1,1.7,1.2c0.2,0,0.4-0.1,0.4-0.3c0-0.2,0-0.4,0-0.6c0,0,0,0,0,0c0-0.5-0.1-0.9-0.1-1.4
		C9.2,33.6,9.1,33.2,8.9,32.9z"/>
	<path class="st0" d="M26.9,31.6c-0.4,0.3-0.8,0.7-1.1,1c-0.2,0.2-0.4,0.5-0.4,0.9c-0.1,0.6-0.2,1.2-0.2,1.9c0,0,0,0,0.1,0
		c0,0.2,0,0.4,0,0.6c0,0.2,0.1,0.3,0.4,0.3c0.1,0,0.2,0,0.2,0c0.9-0.2,1.5-0.8,1.7-1.7c0.2-0.8,0.3-1.6,0.4-2.4c0-0.2,0-0.4-0.2-0.6
		C27.4,31.5,27.1,31.5,26.9,31.6z"/>
	<path class="st0" d="M32.1,13.9c-0.2-0.1-0.3-0.1-0.3-0.3c-0.7-3.2-2.3-5.8-4.7-8c-1.3-1.2-2.8-2.1-4.5-2.7c0-0.7-0.3-1.1-1-1.3
		c-0.6-0.1-1.1-0.3-1.7-0.4c-0.6-0.1-1.3-0.2-2-0.2l0,0c-0.4,0-0.8,0-1.2,0c-0.1,0-0.2,0-0.3,0c-1.1,0.1-2.2,0.3-3.3,0.6
		c-0.8,0.2-1,0.5-1.1,1.3C11.8,3,11.6,3,11.5,3.1c-2,0.8-3.8,2.1-5.2,3.7c-1.8,2-2.9,4.2-3.5,6.8c0,0.2-0.1,0.2-0.2,0.3
		c-0.8,0.2-1.2,0.8-1.4,1.5c-0.1,0.5,0,1,0,1.5c0,0.5,0.3,0.8,0.8,0.9c0.1,0,0.3,0.1,0.5,0.1c0,0.1,0,0.2,0,0.3
		c0,1.3,0.2,2.6,0.5,3.9c0.4,2.2,0.9,4.3,1.8,6.4c0,0.1,0,0.2,0,0.3c-0.1,0.4-0.2,0.7-0.2,1.1c0,2,0.3,3.9,0.7,5.8
		c0.4,1.6,1.4,2.7,3,3.2c0.8,0.2,1.6,0.3,2.4,0.5c0.5,0.1,1.1,0.1,1.6-0.1c0.3-0.1,0.5-0.3,0.7-0.3c0.2,0,0.5,0.3,0.7,0.4
		c1.2,0.6,2.4,0.9,3.7,0.9c1.5,0,2.9-0.5,4.1-1.3c0.1-0.1,0.2-0.1,0.3,0c0.4,0.3,0.9,0.4,1.4,0.4c1.1,0,2.1-0.2,3.1-0.5
		c1.6-0.5,2.6-1.5,3-3.1c0.5-1.9,0.8-3.9,0.8-5.9c0-0.4-0.1-0.8-0.2-1.1c0-0.1,0-0.2,0-0.2c0.7-1.8,1.3-3.7,1.6-5.6
		c0.3-1.3,0.6-2.7,0.6-4c0-0.3,0-0.6,0-0.9c0.1,0,0.1,0,0.1,0c0.7,0,1.2-0.5,1.2-1.2c0-0.4,0-0.8,0-1.1
		C33.3,14.8,32.8,14.2,32.1,13.9z M13.5,2.7c0.9-0.3,1.9-0.4,2.8-0.5c1.6-0.1,3.2,0.1,4.8,0.5c0.2,0.1,0.3,0.1,0.2,0.4
		c-0.4,2-0.9,4-1.3,6c-0.2,0.9-0.4,1.9-0.6,2.8c0,0.2-0.1,0.3-0.3,0.3c-0.6,0-1.2,0-1.9,0s-1.3,0-1.9,0c-0.2,0-0.2-0.1-0.3-0.2
		C14.5,9,13.9,6,13.2,3C13.2,2.8,13.3,2.8,13.5,2.7z M12.2,4.1c0.1,0.4,0.2,0.8,0.3,1.3c0.5,2.3,1,4.7,1.5,7
		c0.1,0.7,0.6,1.1,1.3,1.1c1.4,0,2.7,0,4.1,0c0.7,0,1.2-0.4,1.3-1.1c0.6-2.7,1.1-5.3,1.7-8c0-0.1,0-0.2,0.1-0.3
		c1.4,0.6,2.7,1.4,3.9,2.4c-2.3,3-3.3,6.4-3.1,10.1H11.4c0.3-3.8-0.8-7.1-3.1-10.1l0,0C9.4,5.5,10.7,4.7,12.2,4.1z M2.6,16.7
		c-0.2,0-0.3-0.1-0.3-0.3c0-0.2,0-0.4,0-0.6c0-0.4,0.3-0.7,0.7-0.8c0.4,0,0.7-0.3,0.8-0.7c0.3-1.5,0.8-2.9,1.5-4.2
		c0.5-0.9,1.1-1.8,1.8-2.6c0,0,0.1-0.1,0.1-0.1v0C7.5,7.7,7.7,8,7.9,8.3c1.1,1.7,1.8,3.4,2,5.4c0.1,1,0.2,1.9,0.1,2.9
		c0,0.1-0.1,0.2-0.2,0.2c-0.4,0-0.8,0-1.2,0C6.7,16.7,4.7,16.7,2.6,16.7z M11.4,35.3c0,0.7,0,1.4-0.1,2c-0.1,0.6-0.5,0.9-1.1,0.8
		c-0.5-0.1-1-0.2-1.5-0.3c-1.2-0.4-1.9-1.2-2.2-2.4c-0.3-1.3-0.5-2.5-0.6-3.8c0-0.5-0.1-1.1-0.1-1.6c0-0.5,0.2-0.9,0.6-1.1
		c0.8-0.6,1-0.6,1.8,0.1c1.3,1.1,2.3,2.4,3,4C11.3,33.6,11.4,34.4,11.4,35.3L11.4,35.3z M16.9,37.6L16.9,37.6
		c-0.7-0.2-1.2-0.5-1.5-1.2c-0.1-0.1-0.1-0.3-0.1-0.5c0-0.1,0.1-0.2,0.1-0.2c0.1,0,0.3,0.1,0.3,0.1c0.2,0.7,0.6,1.1,1.3,1.3
		c0.1,0,0.2,0.2,0.2,0.3C17,37.4,16.9,37.5,16.9,37.6z M17,33.8c0,0-0.1,0-0.1,0c-0.6,0.2-1,0.5-1.2,1.1c0,0.1,0,0.2-0.1,0.2
		c-0.1,0.1-0.2,0.1-0.3,0.1c-0.1,0-0.2-0.1-0.2-0.2c0-0.7,1-1.6,1.7-1.7h0c0,0,0.1,0.1,0.1,0.1C17.1,33.6,17,33.7,17,33.8z M19.3,36
		c-0.2,0.7-0.7,1.2-1.4,1.5c-0.1,0-0.1,0-0.3,0.1l0,0c0,0-0.2-0.1-0.2-0.2c0-0.1,0.1-0.2,0.2-0.2c0.2-0.1,0.5-0.2,0.8-0.4
		c0.3-0.2,0.4-0.5,0.5-0.8c0-0.1,0.1-0.3,0.3-0.2C19.4,35.7,19.4,35.9,19.3,36z M19.4,35.1C19.4,35.1,19.4,35.1,19.4,35.1
		c0,0-0.1,0.1-0.2,0.2c-0.1,0-0.2-0.1-0.3-0.2c-0.1-0.1-0.1-0.3-0.2-0.4c-0.2-0.4-0.6-0.7-1-0.9c-0.1,0-0.2-0.1-0.3-0.2
		c-0.1-0.1,0.1-0.3,0.2-0.3C18.4,33.4,19.4,34.4,19.4,35.1C19.4,35.1,19.4,35.1,19.4,35.1L19.4,35.1z M22,33.7
		c-0.2,0.8-0.1,1.7-0.1,2.5c0,0.3,0,0.5,0,0.8c0,0,0,0.1,0,0.1c-0.3,0.2-0.6,0.5-0.9,0.7l-0.1,0v-0.3c0-1.4,0-2.8,0-4.2
		c0-0.9-0.2-1.7-0.7-2.5c-0.6-0.9-1.3-1.8-1.9-2.7c-0.2-0.3-0.5-0.5-0.9-0.6c-0.4-0.1-0.7,0-0.9,0.2c-0.3,0.2-0.6,0.5-0.8,0.8
		c-0.5,0.6-0.9,1.2-1.3,1.9c-0.6,0.9-0.9,1.9-0.9,3.1c0,1.3,0,2.6,0,4c0,0.1,0,0.2,0,0.3c0,0-0.1,0-0.1,0.1l0,0
		c-0.3-0.2-0.6-0.4-0.8-0.7c0,0-0.1-0.1-0.1-0.2c0-0.5,0-1,0-1.5c0.1-1.7-0.5-3.2-1.5-4.6c-0.1-0.2-0.1-0.3,0-0.5
		c1.3-2.5,2.7-4.9,4.5-7c0.2-0.3,0.5-0.6,0.8-0.8c0.5-0.4,1.1-0.4,1.6,0c0.4,0.4,0.8,0.8,1.2,1.2c1.6,2.1,3,4.3,4.2,6.6
		c0.1,0.2,0.1,0.3,0,0.4C22.8,31.7,22.2,32.6,22,33.7z M28.7,32.1c-0.1,1.2-0.3,2.4-0.7,3.6c-0.3,1.1-1.2,1.8-2.3,2.1
		c-0.5,0.1-1,0.2-1.5,0.3c-0.6,0.1-1-0.4-1.1-1c0-0.6,0-1.1,0-1.7l0,0c-0.2-2.1,0.7-3.7,2-5.2c0.5-0.6,1.1-1.1,1.6-1.6
		c0.3-0.3,0.6-0.3,1-0.1c0.1,0.1,0.2,0.1,0.3,0.2c0.6,0.4,0.8,0.9,0.7,1.6C28.8,30.8,28.8,31.5,28.7,32.1z M30.2,22.8
		c-0.1,0.3-0.2,0.5-0.5,0.6c-0.7,0.4-1.5,0.7-2.4,1c-1.2,0.3-2.5,0.6-3.7,1c-0.3,0.1-0.7,0.1-1,0.1c-0.6,0-1.1-0.3-1.4-0.8
		c-0.6-0.8-1.2-1.6-1.9-2.4c-0.4-0.5-0.9-0.8-1.5-1c-0.9-0.2-1.7,0-2.4,0.6c-0.7,0.6-1.2,1.4-1.8,2.2c-0.2,0.3-0.4,0.5-0.6,0.8
		c-0.5,0.6-1.3,0.8-2,0.6c-1.2-0.3-2.4-0.6-3.6-0.9c-0.9-0.2-1.9-0.6-2.7-1c-0.3-0.2-0.5-0.4-0.6-0.8c-0.3-1.4-0.6-2.8-0.6-4.3
		c0-0.6,0-0.9,0.8-0.9c4.3,0,8.6,0,12.8,0l0,0c4.3,0,8.7,0,13,0c0.5,0,0.6,0.2,0.6,0.6C30.9,19.7,30.6,21.3,30.2,22.8z M32.2,16.5
		c0,0.2-0.1,0.2-0.2,0.2c-0.6,0-1.3,0-1.9,0c-1.7,0-3.5,0-5.2,0c-0.2,0-0.3-0.1-0.3-0.3c-0.2-3.3,0.7-6.2,2.6-8.8
		c0,0,0.1-0.1,0.1-0.1h0c0.6,0.7,1.2,1.4,1.7,2.2c0.9,1.5,1.5,3,1.8,4.7c0.1,0.4,0.4,0.7,0.8,0.7c0.4,0,0.7,0.3,0.7,0.7
		C32.2,16,32.2,16.3,32.2,16.5z"/>
	<path class="st0" d="M30,17.9c-4.2,0-8.5,0-12.7,0l0,0c-4.2,0-8.5,0-12.7,0C4.1,17.9,4,18,4,18.5c0,1.4,0.3,2.7,0.6,4.1
		c0.1,0.3,0.2,0.5,0.5,0.6c0.8,0.4,1.7,0.8,2.6,1c1.1,0.3,2.2,0.6,3.3,0.9c1.1,0.3,1.6,0.1,2.2-0.8c0.3-0.4,0.5-0.7,0.8-1.1
		c0.5-0.6,1-1.3,1.6-1.7c0.6-0.4,1.3-0.6,2-0.5c0.8,0.1,1.4,0.6,2,1.2c0.6,0.8,1.2,1.6,1.8,2.4c0.1,0.1,0.2,0.3,0.3,0.4
		c0.5,0.5,1.1,0.4,1.7,0.3c1.1-0.3,2.2-0.6,3.3-0.9c1-0.2,1.9-0.6,2.7-1c0.2-0.1,0.3-0.3,0.4-0.5c0-0.1,0-0.2,0.1-0.3
		c0.3-1.3,0.5-2.5,0.6-3.8C30.6,18,30.5,17.9,30,17.9z M29.7,21.4c-0.1,0.4-0.1,0.7-0.2,1.1c0,0.1-0.1,0.3-0.2,0.3
		c-0.8,0.5-1.7,0.7-2.6,1c-1.1,0.3-2.2,0.6-3.3,0.9c-0.8,0.2-1.1,0-1.6-0.6c-0.6-0.9-1.3-1.8-2-2.6c-0.6-0.6-1.2-0.9-2-1
		c-1-0.1-1.9,0.2-2.6,0.9c-0.6,0.6-1.1,1.3-1.7,1.9c-0.2,0.3-0.4,0.5-0.6,0.8c-0.4,0.6-0.9,0.8-1.6,0.6C10.1,24.3,9,24,7.9,23.7
		c-0.9-0.2-1.7-0.5-2.5-0.9c-0.1-0.1-0.2-0.2-0.3-0.4c-0.2-1.1-0.4-2.1-0.5-3.2c0-0.3,0-0.6-0.1-0.9h25.6
		C30,19.4,29.9,20.4,29.7,21.4z"/>
</g>
</svg>
