<?xml version="1.0" encoding="UTF-8"?>
<svg id="Capa_1" data-name="Capa 1" xmlns="http://www.w3.org/2000/svg" viewBox="0 0 73.04 32">
  <defs>
    <style>
      .cls-1 {
        fill: #fff;
      }

      .cls-2 {
        fill: #fdc50a;
      }

      .cls-3 {
        fill: #ec661c;
      }
    </style>
  </defs>
  <g>
    <path class="cls-1" d="m27.5,12.25c-.05-.83-.56-1.57-1.3-1.92-.57-2.36-1.81-4.4-3.68-6.08-.93-.83-1.99-1.5-3.14-1.99-.19-.59-.62-.97-1.3-1.15-.39-.11-.85-.23-1.33-.31-.35-.06-.71-.1-1.07-.13l-.43-.05s-.08,0-.1,0h-.85s-.18.02-.2.02c0,0-.1.01-.1.01-.87.05-1.76.2-2.63.46-.71.21-1.13.57-1.31,1.16-1.54.65-2.92,1.63-4.1,2.93-1.33,1.46-2.25,3.19-2.73,5.14-.7.33-1.15.95-1.27,1.72-.07.47-.04.92-.01,1.3.05.61.4,1.1.97,1.37.06.91.21,1.79.36,2.54.34,1.75.7,3.22,1.28,4.66,0,.03-.02.07-.03.11-.05.2-.12.44-.12.72-.03,1.38.15,2.82.56,4.54.37,1.54,1.34,2.58,2.81,3.03.5.15,1,.23,1.53.32l.34.06c.59.1,1.14.06,1.65-.11.06-.02.12-.05.19-.08.06.04.12.08.19.11,1.03.52,2.02.77,3.03.77h.14c1.07-.03,2.13-.32,3.14-.87.35.16.74.22,1.14.22.89-.01,1.75-.15,2.55-.4,1.46-.47,2.43-1.49,2.79-2.95.4-1.62.6-3.11.6-4.58,0-.33-.05-.63-.15-.93.49-1.23.86-2.56,1.15-4.05l.09-.48c.16-.84.33-1.7.38-2.61h0c.59-.29.96-.85.99-1.55.01-.29.01-.6-.01-.93Z"/>
    <g>
      <path d="m15.14,1.5c.49.06.98.1,1.46.18.42.07.83.18,1.25.29.53.14.72.39.75.94,1.23.46,2.35,1.13,3.33,2.01,1.79,1.6,2.97,3.55,3.48,5.9.03.14.09.2.23.24.55.17.94.67.98,1.25.02.28.02.56,0,.84-.02.53-.35.84-.89.87-.02,0-.03,0-.07.01,0,.22-.02.44-.03.66-.05,1-.27,1.98-.46,2.97-.27,1.42-.65,2.8-1.2,4.14-.02.05-.01.13.01.18.12.26.17.54.17.83,0,1.48-.21,2.93-.57,4.36-.3,1.19-1.05,1.95-2.2,2.32-.74.24-1.51.35-2.29.36-.37,0-.72-.08-1.03-.29-.08-.06-.14-.05-.22,0-.93.57-1.95.91-3.04.94-.97.02-1.89-.24-2.75-.67-.18-.09-.35-.26-.53-.28-.17-.01-.35.13-.54.2-.4.14-.81.15-1.21.08-.59-.1-1.19-.17-1.76-.35-1.19-.36-1.91-1.18-2.2-2.39-.34-1.42-.57-2.85-.54-4.31,0-.26.11-.53.16-.79.01-.06.03-.14,0-.2-.64-1.51-1-3.09-1.32-4.7-.19-.94-.34-1.89-.36-2.85,0-.07-.01-.14-.02-.2-.13-.02-.25-.03-.36-.06-.32-.11-.54-.34-.57-.68-.03-.36-.04-.74,0-1.1.08-.58.44-.96,1-1.14.11-.03.16-.08.18-.2.41-1.91,1.27-3.6,2.59-5.05,1.09-1.19,2.37-2.13,3.87-2.75.11-.05.23-.09.35-.13.06-.59.22-.79.79-.96.79-.23,1.6-.38,2.43-.42.08,0,.16-.02.25-.03.29,0,.57,0,.86,0Z"/>
      <g>
        <path class="cls-2" d="m11.91,28.74c-.2-.17-.41-.33-.61-.5-.03-.03-.04-.11-.04-.16,0-.38.01-.76.03-1.14.08-1.28-.35-2.39-1.09-3.39-.09-.13-.1-.22-.03-.36.94-1.85,2.03-3.59,3.33-5.21.17-.22.38-.41.6-.58.36-.29.85-.31,1.2,0,.32.27.61.58.87.91,1.19,1.53,2.21,3.17,3.08,4.9.07.13.05.22-.03.33-.46.65-.85,1.33-1.01,2.12-.12.62-.1,1.25-.07,1.88,0,.2.01.4.01.6,0,.03,0,.08-.03.1-.21.18-.43.36-.65.54l-.04-.03v-.19c0-1.04,0-2.09,0-3.13,0-.66-.14-1.28-.49-1.83-.44-.67-.93-1.31-1.42-1.96-.16-.21-.36-.38-.63-.44-.26-.06-.49-.01-.68.16-.21.18-.41.38-.58.6-.34.45-.67.91-.99,1.37-.48.68-.67,1.44-.67,2.26,0,.97,0,1.95,0,2.92,0,.07,0,.14,0,.21-.02.01-.04.03-.05.04Z"/>
        <g>
          <path class="cls-2" d="m8.03,5.62c.87-.77,1.82-1.36,2.91-1.8.07.32.13.62.2.93.36,1.72.72,3.45,1.08,5.17.1.5.47.78.98.78,1.02,0,2.03,0,3.05,0,.51,0,.87-.29.98-.78.41-1.96.81-3.92,1.22-5.89.01-.06.03-.12.06-.22,1.07.43,2.03,1.03,2.9,1.8-1.71,2.21-2.47,4.71-2.27,7.5h-8.8c.19-2.78-.56-5.28-2.28-7.5Z"/>
          <path class="cls-2" d="m16.74,7.51c-.14.69-.28,1.38-.43,2.06-.03.15-.09.19-.24.19-.46,0-.91,0-1.37,0-.46,0-.93,0-1.39,0-.12,0-.17-.04-.2-.16-.46-2.19-.92-4.39-1.38-6.58-.03-.15.04-.19.16-.22.69-.19,1.38-.31,2.1-.37,1.2-.09,2.37.04,3.52.36.16.04.2.1.16.27-.31,1.48-.63,2.96-.93,4.45"/>
          <path class="cls-2" d="m7.36,6.29c.15.2.29.4.42.6.8,1.22,1.31,2.54,1.51,3.98.1.71.13,1.43.07,2.14,0,.11-.06.13-.15.12-.28,0-.57,0-.85,0-1.49,0-2.98,0-4.47,0-.17,0-.23-.05-.21-.22.01-.16,0-.32,0-.48,0-.32.22-.54.54-.56.33-.02.53-.2.59-.53.19-1.09.57-2.12,1.11-3.09.38-.68.83-1.31,1.36-1.89.02-.02.04-.04.08-.08Z"/>
          <path class="cls-2" d="m22.07,6.29c.47.5.87,1.03,1.22,1.6.66,1.08,1.11,2.24,1.32,3.48.05.31.27.49.59.51.31.02.53.23.54.55,0,.18,0,.37,0,.55,0,.13-.04.16-.16.16-.47,0-.94,0-1.41,0-1.29,0-2.59,0-3.88,0-.17,0-.22-.04-.24-.22-.16-2.41.49-4.58,1.92-6.52.02-.03.05-.06.09-.11Z"/>
        </g>
        <path class="cls-2" d="m10.37,26.85c-.03.5-.03,1-.1,1.49-.06.44-.39.64-.83.56-.38-.07-.76-.13-1.13-.24-.89-.27-1.44-.87-1.65-1.78-.22-.93-.4-1.87-.46-2.83-.03-.4-.05-.8-.06-1.21-.01-.36.14-.64.43-.85.61-.43.77-.42,1.33.06.95.83,1.71,1.81,2.19,2.98.24.58.28,1.19.29,1.81Zm-1.51.07s.02,0,.03,0c-.03-.35-.04-.7-.1-1.04-.05-.27-.09-.58-.25-.78-.29-.36-.66-.66-1.01-.96-.13-.11-.31-.08-.45.01-.14.1-.19.23-.17.4.03.28.04.56.1.83.09.44.15.89.33,1.3.22.53.68.84,1.27.91.17.02.26-.06.27-.23,0-.15,0-.3,0-.44Z"/>
        <path class="cls-2" d="m19.11,26.87c-.15-1.54.54-2.77,1.49-3.88.36-.42.78-.78,1.18-1.15.22-.2.46-.22.72-.07.08.04.15.09.23.14.45.26.59.66.55,1.16-.04.47-.06.95-.11,1.42-.1.91-.25,1.8-.51,2.68-.25.85-.87,1.3-1.68,1.53-.36.1-.73.16-1.1.22-.42.06-.76-.27-.78-.77-.01-.42,0-.84,0-1.26Zm1.4.03s.03,0,.04,0c0,.15,0,.3,0,.44,0,.16.09.25.26.23.06,0,.12,0,.18-.02.66-.18,1.1-.6,1.24-1.26.12-.58.19-1.17.28-1.75.03-.17-.02-.32-.18-.41-.16-.1-.34-.1-.48.02-.29.24-.56.49-.84.74-.18.17-.29.39-.32.64-.07.46-.12.91-.18,1.37Z"/>
        <g>
          <path class="cls-2" d="m14.41,28.54c-.54-.14-.93-.41-1.15-.89-.05-.11-.09-.22-.1-.34,0-.06.07-.18.11-.18.07,0,.19.06.2.11.12.52.45.81.94.96.06.02.13.12.13.19,0,.05-.09.1-.14.14Z"/>
          <path class="cls-2" d="m14.97,28.54s-.13-.1-.13-.15c0-.06.07-.14.13-.18.18-.11.39-.18.56-.3.21-.15.32-.37.4-.62.03-.11.09-.21.22-.16.13.04.13.15.09.26-.17.55-.52.92-1.07,1.09-.05.02-.1.02-.19.05Z"/>
          <path class="cls-2" d="m14.44,25.41s.1.06.11.11c0,.06-.03.14-.07.2-.01.02-.06.02-.1.03-.43.12-.71.4-.86.82-.02.05-.02.12-.05.15-.05.04-.13.1-.19.08-.05-.01-.12-.11-.12-.16.02-.52.72-1.21,1.27-1.23Z"/>
          <path class="cls-2" d="m16.27,26.71s-.08.12-.13.13c-.06,0-.15-.06-.19-.12-.06-.09-.07-.21-.12-.31-.16-.31-.42-.52-.75-.63-.08-.03-.16-.08-.2-.15-.05-.09.06-.2.16-.2.48,0,1.22.75,1.23,1.29Z"/>
        </g>
      </g>
      <g>
        <path class="cls-1" d="m14.71,13.72c3.21,0,6.42,0,9.64,0,.35,0,.46.12.45.48-.04,1.16-.25,2.29-.5,3.42-.05.21-.17.36-.36.46-.55.31-1.14.55-1.76.71-.92.24-1.83.48-2.75.71-.24.06-.49.09-.74.08-.45-.02-.79-.24-1.06-.6-.45-.6-.9-1.2-1.37-1.77-.28-.34-.64-.62-1.09-.74-.67-.17-1.24.02-1.74.48-.52.47-.91,1.04-1.33,1.6-.14.19-.26.38-.41.56-.4.47-.94.57-1.51.44-.88-.21-1.75-.46-2.63-.67-.7-.17-1.37-.41-2.01-.75-.25-.13-.39-.33-.45-.6-.22-1.04-.43-2.09-.47-3.16-.02-.48,0-.65.6-.64,3.16.01,6.32,0,9.48,0Zm0,.26c-3.12,0-6.25,0-9.37,0-.36,0-.44.1-.43.46.03,1.02.24,2.01.45,3,.04.22.16.36.35.46.61.33,1.25.56,1.93.72.82.2,1.64.44,2.46.64.78.19,1.15.04,1.62-.61.19-.27.39-.54.59-.8.36-.47.72-.94,1.21-1.29.45-.32.94-.45,1.5-.37.61.08,1.07.42,1.45.86.47.56.9,1.16,1.35,1.74.07.09.15.19.23.27.38.34.83.32,1.28.22.82-.2,1.63-.43,2.44-.63.71-.17,1.39-.41,2.02-.77.15-.09.24-.2.27-.37.01-.08.03-.16.05-.24.2-.93.38-1.87.41-2.83.01-.35-.07-.44-.43-.44-3.12,0-6.25,0-9.37,0Z"/>
        <path class="cls-1" d="m5.24,14.33h18.94c-.03.76-.12,1.49-.28,2.22-.06.26-.1.52-.17.78-.03.1-.1.21-.18.25-.59.34-1.23.55-1.89.71-.82.2-1.64.43-2.46.63-.58.14-.83.03-1.17-.45-.47-.65-.93-1.32-1.51-1.89-.42-.41-.91-.7-1.51-.77-.75-.09-1.41.12-1.94.65-.44.44-.82.93-1.22,1.41-.16.2-.32.4-.45.62-.27.45-.66.56-1.15.44-.83-.21-1.66-.44-2.49-.64-.66-.16-1.29-.37-1.88-.69-.11-.06-.17-.13-.19-.26-.13-.79-.27-1.57-.4-2.36-.03-.21-.03-.42-.05-.65Z"/>
      </g>
    </g>
  </g>
  <g>
    <path d="m62.04,23.57h-5.35V5.56s.07-.02.11-.02c2.36,0,4.72-.02,7.09.01,1.33.02,2.63.25,3.86.81,2.19,1,3.25,2.73,3.28,5.11.01,1.15-.15,2.26-.69,3.28-.71,1.34-1.86,2.17-3.26,2.68-1.1.4-2.24.51-3.4.51-.03,0-.07,0-.12-.01,0-.07-.01-.14-.01-.2,0-1.12,0-2.24,0-3.36,0-.12,0-.21.16-.23,1.13-.12,1.68-.84,1.83-1.9.08-.58.08-1.17-.13-1.73-.29-.78-.9-1.15-1.68-1.24-.55-.06-1.11-.05-1.69-.07v14.34Z"/>
    <path d="m28.69,24.72c.29-.14.56-.25.82-.39,1.05-.56,1.57-1.45,1.66-2.62.03-.4.05-.81.05-1.21,0-4.89,0-9.79,0-14.68v-.28h5.36v.22c0,5.01,0,10.02,0,15.03,0,1.18-.17,2.33-.69,3.4-.71,1.45-1.8,2.53-3.26,3.22-.76.36-1.55.66-2.32.99-.06.02-.12.04-.19.06-.47-1.25-.95-2.49-1.42-3.74Z"/>
    <path d="m43.94,5.55h5.32v18.02h-5.32V5.55Z"/>
    <g>
      <path class="cls-3" d="m46.09,28.43h-3.39c.09-.22.18-.42.26-.62.16-.37.32-.74.47-1.12.05-.12.11-.18.25-.18.47.01.93,0,1.4,0,.07,0,.17.04.2.09.27.59.53,1.19.81,1.82Z"/>
      <path class="cls-3" d="m57.59,26.19q.05.36-.28.36c-.31,0-.62,0-.93,0-.18,0-.26.04-.25.24.02.34,0,.67,0,1.01q0,.28.27.28c.45,0,.89,0,1.33,0,.1.33.07.37-.23.37-.54,0-1.07,0-1.61,0-.15,0-.2-.05-.2-.2,0-1.13,0-2.26,0-3.39,0-.17.06-.21.21-.21.52,0,1.04,0,1.56,0q.33,0,.28.37c-.14,0-.28,0-.42,0-.34,0-.67,0-1.01,0-.14,0-.2.05-.19.19,0,.27,0,.54,0,.8,0,.15.06.19.19.18.42,0,.84,0,1.26,0Z"/>
      <path class="cls-3" d="m36.6,27.56c.11-.06.22-.11.35-.18.08.4.29.65.7.71.37.05.7-.16.8-.52.1-.34-.04-.61-.4-.77-.23-.1-.48-.17-.71-.27-.72-.28-.9-1.11-.36-1.63.54-.52,1.61-.27,1.84.43-.11.05-.22.1-.34.16-.19-.37-.48-.54-.89-.49-.27.04-.46.23-.49.48-.04.29.08.52.35.63.25.1.51.19.77.29.44.16.73.59.68,1.01-.06.56-.38.95-.89,1-.27.03-.56,0-.82-.08-.35-.11-.5-.42-.58-.77Z"/>
      <path class="cls-3" d="m51.73,26.58h-1.4c0,.09-.01.16-.01.23,0,.49,0,.97,0,1.46,0,.17-.09.17-.21.17-.12,0-.23.02-.23-.17,0-1.15,0-2.3,0-3.46,0-.12.04-.17.16-.17.57,0,1.14,0,1.71,0,.28,0,.12.21.18.36h-1.61v1.21c.26,0,.51,0,.76,0,.12,0,.25,0,.37,0,.33,0,.33,0,.27.37Z"/>
      <path class="cls-3" d="m70.97,24.68c-.35.58-.68,1.15-1.02,1.71-.15.24-.23.48-.22.77.02.37,0,.74,0,1.11,0,.18-.1.18-.22.18-.13,0-.22,0-.22-.18.01-.45.01-.89,0-1.34,0-.12-.04-.24-.1-.34-.34-.58-.7-1.14-1.05-1.72-.04-.06-.07-.12-.1-.18.34-.12.5-.06.66.22.24.41.47.82.71,1.23.03.06.07.11.13.2.05-.07.09-.12.12-.18.23-.41.45-.82.67-1.22.17-.32.22-.34.64-.25Z"/>
      <path class="cls-3" d="m61.58,25.01c-.07-.35-.06-.36.26-.36.69,0,1.39,0,2.08,0q.31,0,.27.36c-.28,0-.57.01-.85,0-.19,0-.25.05-.24.24,0,.99,0,1.97,0,2.96,0,.07-.02.2-.06.21-.1.03-.22.02-.32,0-.03,0-.05-.13-.05-.2,0-.99,0-1.97,0-2.96,0-.2-.06-.26-.25-.25-.28.02-.56,0-.83,0Z"/>
      <path class="cls-3" d="m43.79,25.86c.16-.39.32-.75.48-1.11.02-.04.06-.09.09-.09.03,0,.09.04.1.08.17.37.32.73.5,1.12h-1.17Z"/>
    </g>
  </g>
</svg>