<?xml version="1.0" encoding="utf-8"?>
<!-- Generator: Adobe Illustrator 27.1.1, SVG Export Plug-In . SVG Version: 6.00 Build 0)  -->
<svg version="1.1" id="Capa_1" xmlns="http://www.w3.org/2000/svg" xmlns:xlink="http://www.w3.org/1999/xlink" x="0px" y="0px"
	 viewBox="0 0 73 32" style="enable-background:new 0 0 73 32;" xml:space="preserve">
<style type="text/css">
	.st0{fill:#FFFFFF;}
</style>
<g>
	<g>
		<path class="st0" d="M8.5,25.1c-0.3-0.4-0.7-0.7-1-1c-0.1-0.1-0.3-0.1-0.5,0c-0.1,0.1-0.2,0.2-0.2,0.4c0,0.3,0,0.6,0.1,0.8
			c0.1,0.4,0.2,0.9,0.3,1.3c0.2,0.5,0.7,0.8,1.3,0.9c0.2,0,0.3-0.1,0.3-0.2c0-0.2,0-0.3,0-0.4c0,0,0,0,0,0c0-0.3,0-0.7-0.1-1
			C8.7,25.6,8.7,25.3,8.5,25.1z"/>
		<path class="st0" d="M21.9,24.1c-0.3,0.2-0.6,0.5-0.8,0.7c-0.2,0.2-0.3,0.4-0.3,0.6c-0.1,0.5-0.1,0.9-0.2,1.4c0,0,0,0,0,0
			c0,0.2,0,0.3,0,0.4c0,0.2,0.1,0.2,0.3,0.2c0.1,0,0.1,0,0.2,0c0.7-0.2,1.1-0.6,1.2-1.3c0.1-0.6,0.2-1.2,0.3-1.8
			c0-0.2,0-0.3-0.2-0.4C22.2,24,22,24,21.9,24.1z"/>
		<path class="st0" d="M25.6,11.1c-0.1,0-0.2-0.1-0.2-0.2c-0.5-2.4-1.7-4.3-3.5-5.9c-1-0.9-2.1-1.5-3.3-2c0-0.5-0.2-0.8-0.8-0.9
			c-0.4-0.1-0.8-0.2-1.2-0.3c-0.5-0.1-1-0.1-1.5-0.2l0,0c-0.3,0-0.6,0-0.9,0c-0.1,0-0.2,0-0.2,0c-0.8,0-1.6,0.2-2.4,0.4
			c-0.6,0.2-0.7,0.4-0.8,1c-0.1,0-0.2,0.1-0.4,0.1C8.9,3.7,7.7,4.6,6.6,5.8C5.2,7.3,4.4,9,4,10.9C4,11,3.9,11,3.8,11.1
			c-0.6,0.2-0.9,0.6-1,1.1c0,0.4,0,0.7,0,1.1c0,0.3,0.2,0.6,0.6,0.7c0.1,0,0.2,0,0.4,0.1c0,0.1,0,0.1,0,0.2c0,1,0.2,1.9,0.4,2.8
			c0.3,1.6,0.7,3.2,1.3,4.7c0,0.1,0,0.1,0,0.2c0,0.3-0.2,0.5-0.2,0.8c0,1.5,0.2,2.9,0.5,4.3c0.3,1.2,1,2,2.2,2.4
			c0.6,0.2,1.2,0.2,1.8,0.3c0.4,0.1,0.8,0.1,1.2-0.1c0.2-0.1,0.4-0.2,0.5-0.2c0.2,0,0.3,0.2,0.5,0.3c0.9,0.4,1.8,0.7,2.8,0.7
			c1.1,0,2.1-0.4,3-0.9c0.1,0,0.1-0.1,0.2,0c0.3,0.2,0.7,0.3,1,0.3c0.8,0,1.5-0.1,2.3-0.4c1.2-0.4,1.9-1.1,2.2-2.3
			c0.4-1.4,0.6-2.9,0.6-4.4c0-0.3,0-0.6-0.2-0.8c0,0,0-0.1,0-0.2c0.5-1.3,0.9-2.7,1.2-4.1c0.2-1,0.4-2,0.5-3c0-0.2,0-0.4,0-0.7
			c0,0,0,0,0.1,0c0.5,0,0.9-0.3,0.9-0.9c0-0.3,0-0.6,0-0.8C26.6,11.7,26.2,11.2,25.6,11.1z M11.9,2.8c0.7-0.2,1.4-0.3,2.1-0.4
			c1.2-0.1,2.4,0,3.5,0.4c0.2,0,0.2,0.1,0.2,0.3c-0.3,1.5-0.6,3-0.9,4.5c-0.1,0.7-0.3,1.4-0.4,2.1c0,0.1-0.1,0.2-0.2,0.2
			c-0.5,0-0.9,0-1.4,0s-0.9,0-1.4,0c-0.1,0-0.2,0-0.2-0.2c-0.5-2.2-0.9-4.4-1.4-6.6C11.7,2.9,11.8,2.8,11.9,2.8z M10.9,3.8
			c0.1,0.3,0.1,0.6,0.2,0.9c0.4,1.7,0.7,3.5,1.1,5.2c0.1,0.5,0.5,0.8,1,0.8c1,0,2,0,3,0c0.5,0,0.9-0.3,1-0.8C17.6,8,18,6,18.5,4
			c0-0.1,0-0.1,0.1-0.2c1.1,0.4,2,1,2.9,1.8c-1.7,2.2-2.5,4.7-2.3,7.5h-8.8c0.2-2.8-0.6-5.3-2.3-7.5l0,0C8.9,4.8,9.9,4.3,10.9,3.8z
			 M3.9,13.1c-0.2,0-0.2-0.1-0.2-0.2c0-0.2,0-0.3,0-0.5c0-0.3,0.2-0.5,0.5-0.6c0.3,0,0.5-0.2,0.6-0.5C5,10.2,5.4,9.2,5.9,8.2
			c0.4-0.7,0.8-1.3,1.4-1.9c0,0,0,0,0.1-0.1v0c0.2,0.2,0.3,0.4,0.4,0.6c0.8,1.2,1.3,2.5,1.5,4c0.1,0.7,0.1,1.4,0.1,2.1
			c0,0.1-0.1,0.1-0.1,0.1c-0.3,0-0.6,0-0.9,0C6.9,13.1,5.4,13.1,3.9,13.1z M10.4,26.8c0,0.5,0,1-0.1,1.5c-0.1,0.4-0.4,0.6-0.8,0.6
			c-0.4-0.1-0.8-0.1-1.1-0.2c-0.9-0.3-1.4-0.9-1.6-1.8C6.4,26,6.3,25,6.2,24c0-0.4,0-0.8-0.1-1.2c0-0.4,0.1-0.6,0.4-0.8
			c0.6-0.4,0.8-0.4,1.3,0.1c1,0.8,1.7,1.8,2.2,3C10.3,25.6,10.4,26.2,10.4,26.8L10.4,26.8z M14.4,28.5L14.4,28.5
			c-0.5-0.1-0.9-0.4-1.1-0.9c0-0.1-0.1-0.2-0.1-0.3c0-0.1,0.1-0.2,0.1-0.2c0.1,0,0.2,0.1,0.2,0.1c0.1,0.5,0.5,0.8,0.9,1
			c0.1,0,0.1,0.1,0.1,0.2C14.5,28.4,14.5,28.5,14.4,28.5z M14.5,25.7c0,0-0.1,0-0.1,0c-0.4,0.1-0.7,0.4-0.9,0.8c0,0,0,0.1,0,0.1
			c0,0-0.1,0.1-0.2,0.1c0,0-0.1-0.1-0.1-0.2c0-0.5,0.7-1.2,1.3-1.2h0c0,0,0.1,0.1,0.1,0.1C14.5,25.6,14.5,25.7,14.5,25.7z
			 M16.2,27.4c-0.2,0.5-0.5,0.9-1.1,1.1c-0.1,0-0.1,0-0.2,0l0,0c0,0-0.1-0.1-0.1-0.1c0-0.1,0.1-0.1,0.1-0.2c0.2-0.1,0.4-0.2,0.6-0.3
			c0.2-0.1,0.3-0.4,0.4-0.6c0-0.1,0.1-0.2,0.2-0.2C16.3,27.2,16.3,27.3,16.2,27.4z M16.3,26.7C16.3,26.7,16.3,26.7,16.3,26.7
			c0,0-0.1,0.1-0.1,0.1c-0.1,0-0.2-0.1-0.2-0.1c-0.1-0.1-0.1-0.2-0.1-0.3c-0.2-0.3-0.4-0.5-0.8-0.6c-0.1,0-0.2-0.1-0.2-0.1
			c0-0.1,0.1-0.2,0.2-0.2C15.5,25.4,16.3,26.2,16.3,26.7C16.3,26.7,16.3,26.7,16.3,26.7L16.3,26.7z M18.2,25.7
			c-0.1,0.6-0.1,1.2-0.1,1.9c0,0.2,0,0.4,0,0.6c0,0,0,0.1,0,0.1c-0.2,0.2-0.4,0.4-0.6,0.5l0,0v-0.2c0-1,0-2.1,0-3.1
			c0-0.7-0.1-1.3-0.5-1.8c-0.4-0.7-0.9-1.3-1.4-2c-0.2-0.2-0.4-0.4-0.6-0.4c-0.3-0.1-0.5,0-0.7,0.2c-0.2,0.2-0.4,0.4-0.6,0.6
			c-0.3,0.5-0.7,0.9-1,1.4C12.2,24,12,24.8,12,25.6c0,1,0,2,0,2.9c0,0.1,0,0.1,0,0.2c0,0,0,0-0.1,0l0,0c-0.2-0.2-0.4-0.3-0.6-0.5
			c0,0,0-0.1,0-0.2c0-0.4,0-0.8,0-1.1c0.1-1.3-0.4-2.4-1.1-3.4c-0.1-0.1-0.1-0.2,0-0.4c0.9-1.9,2-3.6,3.3-5.2
			c0.2-0.2,0.4-0.4,0.6-0.6c0.4-0.3,0.8-0.3,1.2,0c0.3,0.3,0.6,0.6,0.9,0.9c1.2,1.5,2.2,3.2,3.1,4.9c0.1,0.1,0,0.2,0,0.3
			C18.8,24.2,18.4,24.9,18.2,25.7z M23.2,24.5c-0.1,0.9-0.2,1.8-0.5,2.7c-0.2,0.8-0.9,1.3-1.7,1.5c-0.4,0.1-0.7,0.2-1.1,0.2
			c-0.4,0.1-0.8-0.3-0.8-0.8c0-0.4,0-0.8,0-1.3l0,0c-0.1-1.5,0.5-2.8,1.5-3.9c0.4-0.4,0.8-0.8,1.2-1.2c0.2-0.2,0.5-0.2,0.7-0.1
			c0.1,0,0.2,0.1,0.2,0.1c0.4,0.3,0.6,0.7,0.5,1.2C23.2,23.5,23.2,24,23.2,24.5z M24.3,17.6c0,0.2-0.2,0.4-0.4,0.5
			c-0.5,0.3-1.1,0.6-1.8,0.7c-0.9,0.2-1.8,0.5-2.8,0.7c-0.2,0.1-0.5,0.1-0.7,0.1c-0.5,0-0.8-0.2-1.1-0.6c-0.5-0.6-0.9-1.2-1.4-1.8
			c-0.3-0.3-0.6-0.6-1.1-0.7c-0.7-0.2-1.2,0-1.7,0.5c-0.5,0.5-0.9,1-1.3,1.6c-0.1,0.2-0.3,0.4-0.4,0.6c-0.4,0.5-0.9,0.6-1.5,0.4
			c-0.9-0.2-1.8-0.5-2.6-0.7c-0.7-0.2-1.4-0.4-2-0.8c-0.2-0.1-0.4-0.3-0.5-0.6c-0.2-1-0.4-2.1-0.5-3.2c0-0.5,0-0.7,0.6-0.6
			c3.2,0,6.3,0,9.5,0l0,0c3.2,0,6.4,0,9.6,0c0.3,0,0.5,0.1,0.4,0.5C24.8,15.4,24.5,16.5,24.3,17.6z M25.7,13c0,0.1,0,0.2-0.2,0.2
			c-0.5,0-0.9,0-1.4,0c-1.3,0-2.6,0-3.9,0c-0.2,0-0.2,0-0.2-0.2c-0.2-2.4,0.5-4.6,1.9-6.5c0,0,0-0.1,0.1-0.1h0
			c0.5,0.5,0.9,1,1.2,1.6c0.7,1.1,1.1,2.2,1.3,3.5c0.1,0.3,0.3,0.5,0.6,0.5c0.3,0,0.5,0.2,0.5,0.5C25.7,12.6,25.7,12.8,25.7,13z"/>
		<path class="st0" d="M24.1,14c-3.1,0-6.2,0-9.4,0l0,0c-3.1,0-6.2,0-9.4,0c-0.4,0-0.4,0.1-0.4,0.5c0,1,0.2,2,0.4,3
			c0,0.2,0.2,0.4,0.4,0.5c0.6,0.3,1.2,0.6,1.9,0.7c0.8,0.2,1.6,0.4,2.5,0.6c0.8,0.2,1.1,0,1.6-0.6c0.2-0.3,0.4-0.5,0.6-0.8
			c0.4-0.5,0.7-0.9,1.2-1.3c0.5-0.3,0.9-0.5,1.5-0.4c0.6,0.1,1.1,0.4,1.5,0.9c0.5,0.6,0.9,1.2,1.3,1.7c0.1,0.1,0.2,0.2,0.2,0.3
			c0.4,0.3,0.8,0.3,1.3,0.2c0.8-0.2,1.6-0.4,2.4-0.6c0.7-0.2,1.4-0.4,2-0.8c0.1-0.1,0.2-0.2,0.3-0.4c0-0.1,0-0.2,0.1-0.2
			c0.2-0.9,0.4-1.9,0.4-2.8C24.5,14.1,24.5,14,24.1,14z M23.9,16.5c-0.1,0.3-0.1,0.5-0.2,0.8c0,0.1-0.1,0.2-0.2,0.2
			c-0.6,0.3-1.2,0.6-1.9,0.7c-0.8,0.2-1.6,0.4-2.5,0.6c-0.6,0.1-0.8,0-1.2-0.5c-0.5-0.6-0.9-1.3-1.5-1.9c-0.4-0.4-0.9-0.7-1.5-0.8
			c-0.8-0.1-1.4,0.1-1.9,0.6c-0.4,0.4-0.8,0.9-1.2,1.4c-0.2,0.2-0.3,0.4-0.5,0.6c-0.3,0.5-0.7,0.6-1.2,0.4c-0.8-0.2-1.7-0.4-2.5-0.6
			c-0.7-0.2-1.3-0.4-1.9-0.7c-0.1-0.1-0.2-0.1-0.2-0.3c-0.1-0.8-0.3-1.6-0.4-2.4c0-0.2,0-0.4-0.1-0.7h18.9
			C24.2,15.1,24.1,15.8,23.9,16.5z"/>
	</g>
	<g>
		<path class="st0" d="M62,23.6h-5.3v-18c0,0,0.1,0,0.1,0c2.4,0,4.7,0,7.1,0c1.3,0,2.6,0.2,3.9,0.8c2.2,1,3.2,2.7,3.3,5.1
			c0,1.1-0.2,2.3-0.7,3.3c-0.7,1.3-1.9,2.2-3.3,2.7c-1.1,0.4-2.2,0.5-3.4,0.5c0,0-0.1,0-0.1,0c0-0.1,0-0.1,0-0.2c0-1.1,0-2.2,0-3.4
			c0-0.1,0-0.2,0.2-0.2c1.1-0.1,1.7-0.8,1.8-1.9c0.1-0.6,0.1-1.2-0.1-1.7c-0.3-0.8-0.9-1.1-1.7-1.2c-0.5-0.1-1.1-0.1-1.7-0.1
			L62,23.6L62,23.6z"/>
		<path class="st0" d="M28.7,24.7c0.3-0.1,0.6-0.2,0.8-0.4c1-0.6,1.6-1.5,1.7-2.6c0-0.4,0-0.8,0-1.2c0-4.9,0-9.8,0-14.7V5.5h5.4v0.2
			c0,5,0,10,0,15c0,1.2-0.2,2.3-0.7,3.4c-0.7,1.5-1.8,2.5-3.3,3.2c-0.8,0.4-1.5,0.7-2.3,1c-0.1,0-0.1,0-0.2,0.1
			C29.7,27.2,29.2,26,28.7,24.7L28.7,24.7z"/>
		<path class="st0" d="M43.9,5.6h5.3v18h-5.3V5.6z"/>
		<g>
			<path class="st0" d="M45.9,29h-3.4c0.1-0.3,0.2-0.5,0.3-0.7c0.2-0.4,0.3-0.9,0.5-1.3c0.1-0.1,0.1-0.2,0.3-0.2c0.5,0,0.9,0,1.4,0
				c0.1,0,0.2,0,0.2,0.1C45.4,27.6,45.6,28.3,45.9,29L45.9,29z"/>
			<path class="st0" d="M57.5,26.4c0,0.3-0.1,0.4-0.3,0.4c-0.3,0-0.6,0-0.9,0c-0.2,0-0.3,0-0.3,0.3c0,0.4,0,0.8,0,1.2
				c0,0.2,0.1,0.3,0.3,0.3c0.5,0,0.9,0,1.3,0c0.1,0.4,0.1,0.4-0.2,0.4c-0.5,0-1.1,0-1.6,0c-0.2,0-0.2-0.1-0.2-0.2c0-1.3,0-2.7,0-4
				c0-0.2,0.1-0.2,0.2-0.2c0.5,0,1,0,1.6,0c0.2,0,0.3,0.1,0.3,0.4c-0.1,0-0.3,0-0.4,0c-0.3,0-0.7,0-1,0C56.1,25,56,25,56,25.2
				c0,0.3,0,0.6,0,0.9c0,0.2,0.1,0.2,0.2,0.2C56.7,26.4,57.1,26.4,57.5,26.4L57.5,26.4z"/>
			<path class="st0" d="M36.4,28c0.1-0.1,0.2-0.1,0.4-0.2c0.1,0.5,0.3,0.8,0.7,0.8c0.4,0.1,0.7-0.2,0.8-0.6c0.1-0.4,0-0.7-0.4-0.9
				c-0.2-0.1-0.5-0.2-0.7-0.3c-0.7-0.3-0.9-1.3-0.4-1.9c0.5-0.6,1.6-0.3,1.9,0.5c-0.1,0.1-0.2,0.1-0.3,0.2c-0.2-0.4-0.5-0.6-0.9-0.6
				c-0.3,0-0.5,0.3-0.5,0.6c0,0.3,0.1,0.6,0.4,0.7c0.3,0.1,0.5,0.2,0.8,0.3c0.4,0.2,0.7,0.7,0.7,1.2c-0.1,0.7-0.4,1.1-0.9,1.2
				c-0.3,0-0.6,0-0.8-0.1C36.6,28.8,36.4,28.4,36.4,28L36.4,28z"/>
			<path class="st0" d="M51.6,26.8h-1.4c0,0.1,0,0.2,0,0.3c0,0.6,0,1.1,0,1.7c0,0.2-0.1,0.2-0.2,0.2s-0.2,0-0.2-0.2
				c0-1.4,0-2.7,0-4.1c0-0.1,0-0.2,0.2-0.2c0.6,0,1.2,0,1.7,0c0.3,0,0.1,0.2,0.2,0.4h-1.6v1.4c0.3,0,0.5,0,0.8,0c0.1,0,0.3,0,0.4,0
				C51.7,26.4,51.7,26.4,51.6,26.8L51.6,26.8z"/>
			<path class="st0" d="M71,24.6c-0.4,0.7-0.7,1.4-1,2c-0.2,0.3-0.2,0.6-0.2,0.9c0,0.4,0,0.9,0,1.3c0,0.2-0.1,0.2-0.2,0.2
				c-0.1,0-0.2,0-0.2-0.2c0-0.5,0-1.1,0-1.6c0-0.1,0-0.3-0.1-0.4c-0.3-0.7-0.7-1.3-1.1-2c0-0.1-0.1-0.1-0.1-0.2
				c0.3-0.1,0.5-0.1,0.7,0.3c0.2,0.5,0.5,1,0.7,1.5c0,0.1,0.1,0.1,0.1,0.2c0.1-0.1,0.1-0.1,0.1-0.2c0.2-0.5,0.5-1,0.7-1.4
				C70.6,24.5,70.6,24.5,71,24.6L71,24.6z"/>
			<path class="st0" d="M61.6,25c-0.1-0.4-0.1-0.4,0.3-0.4c0.7,0,1.4,0,2.1,0c0.2,0,0.3,0.1,0.3,0.4c-0.3,0-0.6,0-0.9,0
				c-0.2,0-0.3,0.1-0.2,0.3c0,1.2,0,2.3,0,3.5c0,0.1,0,0.2-0.1,0.2c-0.1,0-0.2,0-0.3,0c0,0-0.1-0.2-0.1-0.2c0-1.2,0-2.3,0-3.5
				c0-0.2-0.1-0.3-0.3-0.3C62.1,25,61.8,25,61.6,25L61.6,25z"/>
			<path class="st0" d="M43.6,26c0.2-0.5,0.3-0.9,0.5-1.3c0,0,0.1-0.1,0.1-0.1s0.1,0,0.1,0.1c0.2,0.4,0.3,0.9,0.5,1.3H43.6z"/>
		</g>
	</g>
</g>
</svg>
