<?xml version="1.0" encoding="UTF-8"?>
<svg id="Layer_1" data-name="Layer 1" xmlns="http://www.w3.org/2000/svg" viewBox="0 0 80 80">
  <defs>
    <style>
      .cls-1 {
        fill: #fff;
      }
    </style>
  </defs>
  <circle class="cls-1" cx="40" cy="40" r="37.99"/>
  <path d="m39.99,3.85c19.95,0,36.14,16.18,36.14,36.14,0,19.95-16.19,36.16-36.13,36.16-19.95,0-36.14-16.2-36.14-36.15,0-19.96,16.17-36.15,36.13-36.15Zm-18.91,51.93c-.65-4.42-1.29-8.76-1.94-13.15h-9.99c.06,6.03,2.5,11.08,5.9,15.75,2.11-.91,4.14-1.78,6.03-2.59Zm49.73-18.4c0-.18,0-.29,0-.39-.56-5.51-2.43-10.53-5.64-15.06-.28-.4-.51-.33-.87-.17-1.66.74-3.33,1.49-5.02,2.18-.49.2-.62.37-.5.93.45,2.04.89,4.09,1.2,6.16.31,2.09.47,4.21.7,6.36h10.12ZM15.06,21.61c-3.42,4.67-5.39,9.91-5.91,15.75h10.21c.08-1.13.09-2.21.26-3.27.51-3.15,1.08-6.29,1.6-9.43.03-.19-.16-.56-.34-.63-1.89-.81-3.8-1.59-5.82-2.42Zm49.89,36.75c3.42-4.7,5.38-9.92,5.89-15.75h-9.99c-.65,4.42-1.3,8.78-1.95,13.16,1.89.81,3.92,1.68,6.04,2.59Zm-11.28-32.6c-3.72.48-7.38.94-11.03,1.41v10.19h12.74c-.13-4-.72-7.88-1.71-11.6Zm-27.34,0c-.95,3.77-1.43,7.65-1.7,11.6h12.76v-10.18c-3.68-.47-7.31-.94-11.05-1.41Zm-.01,28.42c3.75-.48,7.38-.95,11.06-1.43v-10.12h-12.76c.13,3.98.72,7.84,1.7,11.55Zm16.26-1.44c3.76.49,7.41.96,11.1,1.44.97-3.73,1.57-7.58,1.69-11.56h-12.77c-.01.2-.02.36-.02.52,0,3.22,0,6.44,0,9.6Zm.03,17.65c3.84-.98,8.01-6.98,9.28-11.24-3.1-.38-6.16-.76-9.28-1.15v12.39Zm-14.67-11.2c2.16,4.79,4.49,9.07,9.43,11.32v-12.52c-3.14.4-6.21.79-9.43,1.2Zm.08-38.6c3.17.68,6.23,1.09,9.37,1.18v-12.32c-4.95,2.23-7.28,6.52-9.37,11.14Zm24.02.14c-2.17-4.77-4.49-9.06-9.4-11.26v12.46c3.14-.4,6.19-.79,9.4-1.2Zm1.42,47.15c2.89-1.39,5.48-3.17,7.9-5.47-1.52-.61-2.89-1.16-4.2-1.68-1.26,2.44-2.46,4.77-3.7,7.16Zm-34.83-5.46c2.43,2.29,5.01,4.08,7.89,5.45-1.23-2.38-2.44-4.72-3.7-7.15-1.33.54-2.71,1.1-4.19,1.7ZM61.34,17.53c-2.43-2.26-4.99-4.07-7.87-5.42,1.23,2.37,2.43,4.69,3.68,7.1,1.31-.52,2.69-1.08,4.19-1.68Zm-34.81-5.43c-2.88,1.38-5.46,3.16-7.85,5.43,1.47.59,2.86,1.15,4.17,1.68,1.24-2.4,2.44-4.72,3.68-7.11Z"/>
</svg>